<?xml version="1.0" encoding="utf-8"?>
<!-- Generator: Adobe Illustrator 27.5.0, SVG Export Plug-In . SVG Version: 6.00 Build 0)  -->
<svg version="1.1" xmlns="http://www.w3.org/2000/svg" xmlns:xlink="http://www.w3.org/1999/xlink" x="0px" y="0px"
	 viewBox="0 0 500 500" style="enable-background:new 0 0 500 500;" xml:space="preserve">
<g id="BACKGROUND">
</g>
<g id="OBJECTS">
	<path style="opacity:0.22;fill:#423775;" d="M33.129,405.162c-1.488,1.008-2.986,2.35-3.181,4.137
		c-0.384,3.523,4.108,5.292,7.625,5.728c14.983,1.858,30.15,1.223,45.235,0.585c31.079-1.315,62.158-2.63,93.238-3.944
		c3.436-0.145,7.029-0.335,9.992-2.081c2.963-1.745,4.999-5.583,3.561-8.706c-0.575-1.249-1.667-2.404-1.488-3.767
		c0.223-1.699,2.207-2.468,3.876-2.857c10.344-2.41,21.026-3.369,31.634-2.838c3.102,0.155,6.354,0.49,8.917,2.244
		c2.563,1.754,4.106,5.376,2.574,8.077c-2.535,4.468-11.041,3.525-12.112,8.55c-0.822,3.858,3.922,6.465,7.833,6.981
		c9.619,1.27,19.726-1.777,27.041-8.152c3.025-2.637,5.678-5.865,9.344-7.497c5.988-2.666,12.876-0.408,19.178,1.393
		c20.281,5.794,41.992,6.513,62.612,2.074c3.469-0.747,7.323-1.583,10.381,0.218c3.058,1.801,3.41,7.516-0.06,8.26
		c32.331,4.968,65.341,5.503,97.816,1.583c6.827-0.824,15.641-4.321,14.657-11.127c-0.239-1.651-1.09-3.144-1.994-4.546
		c-5.118-7.933-12.518-14.374-21.081-18.348c-7.894-3.664-17.751-6.21-20.96-14.299c-0.843-2.126-1.075-4.632,0.014-6.643
		c0.744-1.375,2.023-2.383,3.365-3.185c4.448-2.66,9.856-3.465,14.141-6.381c4.284-2.916,6.871-9.624,3.09-13.169
		c-1.593-1.493-3.858-1.974-6.004-2.376c-18.328-3.436-37.057-5.621-54.504-12.204c-8.135-3.07-15.912-7.071-24.18-9.762
		c-14.265-4.643-29.505-5.24-44.507-5.201c-57.495,0.147-114.603,9.018-171.141,19.465c-20.512,3.79-41.041,7.805-60.922,14.117
		c-14.368,4.562-30.359,12.644-32.957,27.492c-1.429,8.169,3.155,18.794-0.356,26.447C50.239,403.204,40.189,400.38,33.129,405.162z
		"/>
	<g>
		<g>
			<path style="fill:#ACCE77;" d="M168.58,284.78c-2.89,0.8-9.88-5.62-18.44-15.79c-1.62-1.92-3.28-3.97-4.99-6.12
				c-4.23-5.36-8.7-11.4-13.14-17.76c-1.59-2.27-3.18-4.59-4.74-6.93c-3.84-5.69-7.57-11.55-11.05-17.31
				c-1.17-1.96-2.33-3.9-3.44-5.83c-3.47-6.02-6.58-11.87-9.14-17.25c-1.2-2.54-2.28-4.97-3.21-7.27c-0.02-0.03-0.04-0.07-0.05-0.1
				c-2.56-6.34-4.52-12-5.93-17.06c-0.78-2.8-1.4-5.43-1.86-7.87c-2.96-15.58,0.44-23.89,7.26-27.64c0.54-0.3,1.09-0.56,1.66-0.8
				c6.26-2.6,13.61-2.65,21.38,3.7c1.18,0.96,2.38,2.07,3.58,3.35c1.77,1.86,3.54,4.08,5.33,6.7c3.13,4.57,6.29,10.33,9.43,17.53
				v0.01c0.08,0.18,0.16,0.36,0.24,0.55c0.87,2.01,1.77,4.18,2.69,6.5c2.2,5.54,4.53,11.9,6.88,18.71c0.81,2.4,1.63,4.84,2.45,7.33
				c2.2,6.68,4.35,13.65,6.37,20.58c0.79,2.72,1.55,5.43,2.29,8.12c2.07,7.51,3.91,14.84,5.38,21.56c0.51,2.33,0.98,4.58,1.39,6.74
				c0.12,0.63,0.24,1.25,0.35,1.86C171.78,274.06,172.1,283.82,168.58,284.78z"/>
			<g style="opacity:0.37;">
				<path style="fill:#42700E;" d="M99.845,137.854c3.484,5.802,6.771,11.719,10.078,17.624c3.249,5.937,6.428,11.911,9.584,17.899
					c6.287,11.989,12.21,24.165,18.052,36.377c5.719,12.271,11.273,24.621,16.472,37.122l3.853,9.394l3.71,9.451l1.815,4.74
					l1.736,4.771c1.165,3.177,2.307,6.362,3.432,9.552c-2.689-6.213-5.112-12.527-7.868-18.705l-3.961-9.336l-4.094-9.277
					l-8.28-18.51c-2.832-6.138-5.65-12.281-8.575-18.374c-5.687-12.264-11.627-24.409-17.622-36.529
					c-2.991-6.064-6.022-12.108-9.094-18.132C106.064,149.87,102.946,143.869,99.845,137.854z"/>
			</g>
			<g style="opacity:0.33;">
				<path style="fill:#01A89E;" d="M131.8,150.8l-15.46,18l-0.41,0.48l-8.38,1.59l-13.1,2.49c-0.78-2.8-1.4-5.43-1.86-7.87
					l11.56-2.01l8.65-1.5l0.01-0.01l13.66-17.87C128.24,145.96,130.01,148.18,131.8,150.8z"/>
				<path style="fill:#01A89E;" d="M144.16,175.39l-15.1,18.83l-6.44,0.9l-18.98,2.67c-1.2-2.54-2.28-4.97-3.21-7.27l17.67-2.35
					l7.2-0.96l0.2-0.24l15.73-18.63c0.08,0.18,0.16,0.36,0.24,0.55C142.34,170.9,143.24,173.07,144.16,175.39z"/>
				<path style="fill:#01A89E;" d="M153.49,201.43l-12.45,18.06l-2.05,0.11l-22.77,1.27c-1.17-1.96-2.33-3.9-3.44-5.83L135,213.8
					l3.31-0.19l12.73-19.51C151.85,196.5,152.67,198.94,153.49,201.43z"/>
				<path style="fill:#01A89E;" d="M162.15,230.13l-7.59,10.81l-2.4,3.42l-0.28,0.4l-19.87,0.35c-1.59-2.27-3.18-4.59-4.74-6.93
					l21.92-0.61l1.33-1.94l9.34-13.62C160.65,224.73,161.41,227.44,162.15,230.13z"/>
				<path style="fill:#01A89E;" d="M169.27,260.29l-6.5,8.5l-0.42,0.01l-12.21,0.19c-1.62-1.92-3.28-3.97-4.99-6.12l14.74-0.15
					l5.69-8.21l1.95-2.82c0.51,2.33,0.98,4.58,1.39,6.74C169.04,259.06,169.16,259.68,169.27,260.29z"/>
			</g>
		</g>
		<path style="opacity:0.13;fill:#056B29;" d="M168.58,284.78c-2.89,0.8-9.88-5.62-18.44-15.79c-1.62-1.92-3.28-3.97-4.99-6.12
			c-4.23-5.36-8.7-11.4-13.14-17.76c-1.59-2.27-3.18-4.59-4.74-6.93c-3.84-5.69-7.57-11.55-11.05-17.31
			c-1.17-1.96-2.33-3.9-3.44-5.83c-3.47-6.02-6.58-11.87-9.14-17.25c-1.2-2.54-2.28-4.97-3.21-7.27c-0.02-0.03-0.04-0.07-0.05-0.1
			c-2.56-6.34-4.52-12-5.93-17.06c-0.78-2.8-1.4-5.43-1.86-7.87c-2.96-15.58,0.44-23.89,7.26-27.64c0.54-0.3,1.09-0.56,1.66-0.8
			c6.26-2.6,13.61-2.65,21.38,3.7c-2.64,0.16-5.44-0.39-7.9-0.88c-6.23-1.24-9.89,0.68-11.75,4.14c-2.62,4.91-1.61,12.93,0.91,19.47
			c0.1,0.28,0.21,0.55,0.32,0.82c0.92,2.24,1.96,4.43,3.08,6.57c2.77,5.32,6.05,10.38,9.32,15.41c0.41,0.63,0.82,1.26,1.23,1.89
			c1.5,2.32,3.01,4.64,4.52,6.95c4.08,6.26,8.19,12.5,12.38,18.68c1.33,1.94,2.65,3.87,3.99,5.8c1.95,2.82,3.93,5.62,5.93,8.4
			c1.84,2.56,3.71,5.11,5.6,7.63c1.33,1.78,2.68,3.55,4.04,5.31c1.86,2.4,3.75,4.78,5.67,7.14c1.76,2.16,3.54,4.3,5.35,6.43
			c1.1,1.31,2.22,2.62,3.34,3.92c0.12,0.63,0.24,1.25,0.35,1.86C171.78,274.06,172.1,283.82,168.58,284.78z"/>
	</g>
	<g>
		<path style="fill:#9BABDC;" d="M266.6,311.1h-41.09c4.21-4.64,5.49-14.36,5.85-18.51c0.1-1.21,0.13-1.95,0.13-1.95h27.76
			c0,0.67,0.02,1.32,0.05,1.95C259.95,304.86,266.6,311.1,266.6,311.1z"/>
		<path style="fill:#AFC0F4;" d="M353.82,175.98v99.06c0,9.69-7.86,17.55-17.55,17.55h-173.1c-9.69,0-17.55-7.86-17.55-17.55v-99.06
			c0-5.14,2.21-9.76,5.72-12.98c3.12-2.85,7.27-4.58,11.83-4.58h173.1C345.96,158.42,353.82,166.28,353.82,175.98z"/>
		<path style="fill:#696DB7;" d="M345.66,174.96v93.75c0,2.47-1.07,4.7-2.78,6.23c-1.49,1.33-3.44,2.14-5.6,2.14H162.15
			c-4.62,0-8.36-3.75-8.36-8.37v-93.75c0-2.19,0.83-4.17,2.21-5.67c1.53-1.66,3.72-2.7,6.15-2.7h175.13
			C341.91,166.59,345.66,170.34,345.66,174.96z"/>
		<path style="opacity:0.19;fill:#17094C;" d="M342.88,274.94c-1.49,1.33-3.44,2.14-5.6,2.14H162.15c-4.62,0-8.36-3.75-8.36-8.37
			v-93.75c0-2.19,0.83-4.17,2.21-5.67l0.93,98.24c0.03,3.2,2.6,5.78,5.8,5.83L342.88,274.94z"/>
		<path style="fill:#FFFFFF;" d="M249.721,284.759c0,1.766-1.431,3.197-3.197,3.197c-1.766,0-3.197-1.432-3.197-3.197
			c0-1.766,1.432-3.197,3.197-3.197C248.29,281.561,249.721,282.993,249.721,284.759z"/>
		<path style="fill:#AFC0F4;" d="M280.98,318.05c-0.04,0.66-0.6,1.21-1.31,1.21h-65.83c-0.88,0-1.5-0.84-1.26-1.68
			c1.85-6.48,5.58-6.48,5.58-6.48h58.51c2.53,1.45,3.74,4.58,4.27,6.52C280.98,317.77,280.99,317.91,280.98,318.05z"/>
		<g style="opacity:0.18;">
			<polygon style="fill:#FFFFFF;" points="251.597,166.588 153.786,256.389 153.786,225.56 220.89,166.588 			"/>
			<polygon style="fill:#FFFFFF;" points="311.091,166.588 188.151,277.078 175.096,277.078 301.31,166.588 			"/>
			<polygon style="fill:#FFFFFF;" points="345.66,178.1 345.66,207.321 271.657,277.078 234.108,277.078 			"/>
		</g>
	</g>
	<g>
		<g>
			<path style="fill:#ACCE77;" d="M125.44,284.87c-0.01,0.5-0.03,1.01-0.05,1.53c-0.18,3.85-0.73,7.65-1.47,11.23
				c-0.65,3.11-1.45,6.06-2.29,8.75c-0.9,2.88-1.85,5.45-2.71,7.59c-1.59,3.96-2.87,6.44-2.97,6.65c-0.01,0.01-0.01,0.01-0.01,0.01
				s-9.25,0.56-21.21-2.22h-0.02c-3.84-0.89-7.96-2.13-12.14-3.84c-0.93-0.37-1.85-0.78-2.78-1.21c-4-1.83-6.97-3.72-9.12-5.56
				c-2.2-1.9-3.55-3.76-4.29-5.5c-1.8-4.28,0.12-7.83,2.22-9.38c2.9-2.15,5.17-1.28,6.32-3.04c0.35-0.54,0.6-1.31,0.73-2.49
				c0.23-2.14-0.66-3.04-2.31-3.63h-0.01c-2.25-0.82-5.93-1.1-10.11-3.22c-1.62-0.82-3.02-1.76-4.18-2.76
				c-1.91-1.64-3.19-3.46-3.8-5.25c-0.7-2.04-0.52-4.04,0.62-5.67c0.77-1.08,1.53-1.8,2.27-2.28c1.26-0.83,2.46-0.98,3.51-1.08
				c1.1-0.11,2.05-0.15,2.73-0.84v-0.01c0.11-0.11,0.22-0.25,0.32-0.4c0.73-1.17-0.43-2.92-1.98-5.17c-1.37-2-3.03-4.39-3.96-7.13
				c-0.52-1.54-0.81-3.19-0.68-4.95c0.04-0.63,0.14-1.28,0.31-1.95c1.82-7.33,8.38-10.88,14.66-9.54c0.41,0.08,0.81,0.18,1.21,0.31
				c1.37,0.43,2.71,1.1,3.97,2.03c0.03,0.02,0.05,0.03,0.07,0.05c2.8,2.07,4.47,4.19,5.65,5.95c1.42,2.09,2.15,3.66,3.26,3.99
				c0.4,0.12,0.84,0.08,1.38-0.14c3.36-1.41,2.57-5.83,9.55-6.93c0.59-0.09,1.16-0.11,1.71-0.05c1.57,0.16,2.97,0.9,4.18,2.05
				c2.51,2.39,4.15,6.55,4.58,10.82v0.01c0.15,1.47,0.16,2.95,0.01,4.39c-0.47,4.46-1.43,8.04-1.53,10.44
				c-0.09,2.06,0.47,3.26,2.54,3.41c2.58,0.19,2.94-5.33,8.07-5.64c0.79-0.05,1.56,0.05,2.29,0.36c1.41,0.56,2.68,1.85,3.63,4.15
				C124.94,271.9,125.7,277.02,125.44,284.87z"/>
			<g style="opacity:0.49;">
				<path style="fill:#42700E;" d="M64.085,235.008c2.712,3.187,5.269,6.501,7.828,9.812c2.522,3.34,4.975,6.731,7.412,10.134
					c4.84,6.832,9.38,13.871,13.813,20.976c4.348,7.156,8.5,14.437,12.342,21.878c3.878,7.423,7.326,15.067,10.465,22.82
					c-1.928-3.717-3.617-7.539-5.632-11.203l-2.873-5.565l-3.007-5.493c-2.021-3.651-4.069-7.289-6.152-10.905
					c-2.117-3.597-4.24-7.19-6.456-10.727c-4.309-7.15-8.854-14.155-13.473-21.113l-3.489-5.203l-3.557-5.158
					C68.955,241.805,66.522,238.408,64.085,235.008z"/>
			</g>
			<g style="opacity:0.32;">
				<path style="fill:#01A89E;" d="M78.29,235.9l-6.5,9.38l-0.06,0.09l-5.36,1.89l-7.62,2.69c-0.52-1.54-0.81-3.19-0.68-4.95
					l9.81-3.52l0.79-0.28l0.07-0.09l5.51-7.29c1.37,0.43,2.71,1.1,3.97,2.03C78.25,235.87,78.27,235.88,78.29,235.9z"/>
				<path style="fill:#01A89E;" d="M61.64,263.5l-3.51,1.08C59.39,263.75,60.59,263.6,61.64,263.5z"/>
				<path style="fill:#01A89E;" d="M87.2,245.84l-6.76,11.79l-0.05,0.09l-4.49,1.38l-11.53,3.55c0.11-0.11,0.22-0.25,0.32-0.4
					c0.73-1.17-0.43-2.92-1.98-5.17l8.23-2.49l6.05-1.83l0.05-0.08l6.9-10.83C85.36,243.94,86.09,245.51,87.2,245.84z"/>
				<path style="fill:#01A89E;" d="M104.02,240.77l-16.03,28.34l-0.04,0.07l-13.08,3.89l-15.83,4.71c-1.91-1.64-3.19-3.46-3.8-5.25
					c3.98-1.1,12.12-3.37,18.85-5.25c5.88-1.65,10.69-3,10.69-3l0.04-0.07l15.02-25.49C101.41,238.88,102.81,239.62,104.02,240.77z"
					/>
				<path style="fill:#01A89E;" d="M108.61,255.99c-0.47,4.46-1.43,8.04-1.53,10.44l-9.81,17.86l-0.03,0.06l-10.02,2.48l-12.3,3.05
					c0.35-0.54,0.6-1.31,0.73-2.49c0.23-2.14-0.66-3.04-2.31-3.63l11.86-3.18l8.44-2.26l0.03-0.06l14.93-26.66
					C108.75,253.07,108.76,254.55,108.61,255.99z"/>
				<path style="fill:#01A89E;" d="M123.61,268.71l-17.52,31.47l-0.02,0.03l-12.69,2.72l-22.71,4.87c-2.2-1.9-3.55-3.76-4.29-5.5
					l19.95-4.43l16.51-3.66l0.02-0.04l17.12-29.61C121.39,265.12,122.66,266.41,123.61,268.71z"/>
				<path style="fill:#01A89E;" d="M125.44,284.87c-0.01,0.5-0.03,1.01-0.05,1.53c-0.18,3.85-0.73,7.65-1.47,11.23l-6.08,9.85
					l-4.51,7.33l-0.01,0.01l-18.59,3.59h-0.02c-3.84-0.89-7.96-2.13-12.14-3.84l28.26-5.02l0.15-0.03c0,0,0.44-0.77,1.18-2.05
					C114.9,302.7,121.76,290.81,125.44,284.87z"/>
			</g>
		</g>
		<path style="opacity:0.13;fill:#056B29;" d="M121.63,306.38c-0.9,2.88-1.85,5.45-2.71,7.59c-1.59,3.96-2.87,6.44-2.97,6.65
			c-0.01,0.01-0.01,0.01-0.01,0.01s-9.25,0.56-21.21-2.22h-0.02c-3.84-0.89-7.96-2.13-12.14-3.84c-0.93-0.37-1.85-0.78-2.78-1.21
			c-4-1.83-6.97-3.72-9.12-5.56c-2.2-1.9-3.55-3.76-4.29-5.5c-1.8-4.28,0.12-7.83,2.22-9.38c2.9-2.15,5.17-1.28,6.32-3.04
			c0.35-0.54,0.6-1.31,0.73-2.49c0.23-2.14-0.66-3.04-2.31-3.63h-0.01c-2.25-0.82-5.93-1.1-10.11-3.22
			c-1.62-0.82-3.02-1.76-4.18-2.76c-1.91-1.64-3.19-3.46-3.8-5.25c-0.7-2.04-0.52-4.04,0.62-5.67c0.77-1.08,1.53-1.8,2.27-2.28
			c1.26-0.83,2.46-0.98,3.51-1.08c1.1-0.11,2.05-0.15,2.73-0.84v-0.01c0.11-0.11,0.22-0.25,0.32-0.4c0.73-1.17-0.43-2.92-1.98-5.17
			c-1.37-2-3.03-4.39-3.96-7.13c-0.52-1.54-0.81-3.19-0.68-4.95c0.04-0.63,0.14-1.28,0.31-1.95c1.82-7.33,8.38-10.88,14.66-9.54
			c-1.93,1.52-3.14,3.83-4.25,6.05c-0.16,0.32-0.32,0.65-0.48,0.98c-0.15,0.31-0.29,0.62-0.43,0.94c-0.83,1.87-1.48,3.86-1.51,5.78
			c-0.02,1.1,0.17,2.19,0.66,3.22c0.82,1.75,2.32,2.97,3.91,4.11c0.83,0.61,1.69,1.19,2.49,1.82c0.93,0.73,1.82,1.66,2.47,2.69
			c0.95,1.52,1.38,3.26,0.64,4.85c-0.57,1.26-1.77,2.13-2.45,3.33c-0.06,0.07-0.1,0.15-0.14,0.23c-0.93,1.85-0.34,3.85,0.92,5.56
			c0.95,1.29,2.28,2.41,3.63,3.2c2.28,1.33,4.92,2.48,6.7,4.31c0.67,0.68,1.23,1.47,1.59,2.4c0.47,1.22,0.55,2.52,0.43,3.85
			c-0.32,3.8-2.19,7.86-0.89,11.04c0.19,0.48,0.46,0.93,0.81,1.37c0.81,1,1.97,1.64,3.12,2.23c1.03,0.52,2.07,1,3.12,1.46
			c5.18,2.24,10.71,3.7,16.32,4.33c0.82,0.09,1.64,0.16,2.46,0.21c0.75,0.06,1.51,0.1,2.26,0.12c1.14,0.03,2.29,0.03,3.42-0.11
			c0.92-0.1,1.83-0.29,2.7-0.62C120.92,306.72,121.28,306.56,121.63,306.38z"/>
	</g>
	<g>
		<g>
			<path style="fill:#ACCE77;" d="M445.122,192.6c-0.19,2.77-0.49,5.71-0.91,8.78c-0.74,5.51-1.87,11.46-3.54,17.7
				c-0.8,3-1.73,6.09-2.8,9.22c-2.4,7.03-5.51,14.32-9.53,21.67c-1.63,2.97-3.39,5.94-5.32,8.91c-4.53,7-9.95,13.98-16.43,20.79
				c-3.34,3.53-6.97,7-10.9,10.4c-6.47,5.62-13.77,11.04-22,16.18c-3.51,2.19-7.19,4.33-11.05,6.4c-3.19,1.73-6.51,3.41-9.96,5.04
				c0,0-0.08-0.54-0.18-1.57c-0.17-1.76-0.42-4.95-0.5-9.25c-0.07-3.34-0.02-7.34,0.25-11.87c0.48-8.04,1.65-17.73,4.2-28.26
				c1.04-4.29,2.31-8.71,3.84-13.23c2.5-7.39,5.74-15,9.89-22.6c1.71-3.12,3.56-6.23,5.59-9.34c4.24-6.49,9.22-12.9,15.07-19.09
				c2.22-2.35,4.56-4.67,7.04-6.95c4.44-4.08,9.31-8.04,14.64-11.8c2.67-1.9,5.46-3.75,8.37-5.54c1.44-0.89,2.92-1.77,4.42-2.62
				c5.88-3.39,12.22-6.56,19.06-9.49C444.372,166.08,446.313,176.61,445.122,192.6z"/>
			<g style="opacity:0.43;">
				<path style="fill:#42700E;" d="M352.684,317.69c3.808-6.334,7.712-12.605,11.546-18.92l11.658-18.843l23.345-37.656
					c3.888-6.276,7.796-12.541,11.639-18.844l11.572-18.882c3.817-6.317,7.64-12.633,11.301-19.039
					c3.783-6.344,7.299-12.822,10.629-19.423c-5.757,13.632-13.107,26.519-20.37,39.382c-7.326,12.843-15.025,25.46-22.771,38.046
					c-7.814,12.544-15.718,25.029-23.824,37.384l-12.213,18.496C361.033,305.497,356.936,311.645,352.684,317.69z"/>
			</g>
			<g style="opacity:0.32;">
				<path style="fill:#01A89E;" d="M445.122,192.6c-0.19,2.77-0.49,5.71-0.91,8.78l-13.77,0.47l-5.46,0.18l-12.46-18.3
					c2.67-1.9,5.46-3.75,8.37-5.54l9.3,14.84l0.51,0.81l1.13-0.1L445.122,192.6z"/>
				<path style="fill:#01A89E;" d="M440.672,219.08c-0.8,3-1.73,6.09-2.8,9.22l-16.86-0.01l-11.78-0.01l-18.39-25.8
					c2.22-2.35,4.56-4.67,7.04-6.95l16.79,23.78l0.01,0.01l10.07-0.09L440.672,219.08z"/>
				<path style="fill:#01A89E;" d="M428.342,249.97c-1.63,2.97-3.39,5.94-5.32,8.91l-18.77,0.1l-14.11,0.08l-19.96-28.15
					c1.71-3.12,3.56-6.23,5.59-9.34l20.33,27.95l0.01,0.01l13.89,0.19L428.342,249.97z"/>
				<path style="fill:#01A89E;" d="M406.592,279.67c-3.34,3.53-6.97,7-10.9,10.4l-14.46-1.39l-9.27-0.9l-0.01-0.01l-15.5-21.03
					c1.04-4.29,2.31-8.71,3.84-13.23l18.04,24.26l11.58,0.78L406.592,279.67z"/>
				<path style="fill:#01A89E;" d="M373.692,306.25c-3.51,2.19-7.19,4.33-11.05,6.4l-5.52-0.45l-0.82-0.07h-0.01l-4.29-5.26
					c-0.07-3.34-0.02-7.34,0.25-11.87l8.28,10.57l3.79,0.2L373.692,306.25z"/>
			</g>
		</g>
		<path style="opacity:0.13;fill:#056B29;" d="M445.122,192.6c-0.19,2.77-0.49,5.71-0.91,8.78c-0.74,5.51-1.87,11.46-3.54,17.7
			c-0.8,3-1.73,6.09-2.8,9.22c-2.4,7.03-5.51,14.32-9.53,21.67c-1.63,2.97-3.39,5.94-5.32,8.91c-4.53,7-9.95,13.98-16.43,20.79
			c-3.34,3.53-6.97,7-10.9,10.4c-6.47,5.62-13.77,11.04-22,16.18c-3.51,2.19-7.19,4.33-11.05,6.4c-3.19,1.73-6.51,3.41-9.96,5.04
			c0,0-0.08-0.54-0.18-1.57c0.89-0.74,1.78-1.48,2.66-2.24c0.66-0.55,1.31-1.1,1.96-1.68c2.44-2.09,4.84-4.24,7.2-6.43
			c5.89-5.44,11.54-11.14,16.91-17.09c2.99-3.3,5.89-6.68,8.68-10.13c5.12-6.29,9.91-12.82,14.34-19.57c2-3.04,3.92-6.13,5.75-9.26
			c4.08-6.93,7.76-14.08,11.01-21.43c1.32-2.99,2.57-6.01,3.74-9.06c1.58-4.1,3.02-8.26,4.31-12.48c0.5-1.62,0.97-3.25,1.38-4.9
			c0.68-2.67,1.2-5.38,1.39-8.11c0.08-1.22,0.1-2.45,0.04-3.68c-0.02-0.41-0.05-0.82-0.09-1.23c-0.49-5.02-2.67-10.08-6.47-13.26
			c5.88-3.39,12.22-6.56,19.06-9.49C444.372,166.08,446.313,176.61,445.122,192.6z"/>
	</g>
	<g>
		<path style="fill:#F6F1C9;" d="M218.24,333.42c0.24,0.79,0.52,1.61,0.83,2.46l-133.11,3.04c0,0-8.98-0.07-7.86-12.1
			c1.11-12.04,10.92-12.57,10.92-12.57l130.23-1.02c0,0-0.98,1.13-1.77,3.54C216.44,319.97,215.76,325.42,218.24,333.42z"/>
		<path style="opacity:0.27;fill:#824C3A;" d="M218.24,333.42c0.24,0.79,0.52,1.61,0.83,2.46l-133.11,3.04c0,0-8.98-0.07-7.86-12.1
			c1.11-12.04,10.92-12.57,10.92-12.57l130.23-1.02c0,0-0.98,1.13-1.77,3.54c-19.9,0.16-123.74,1.05-127.32,1.64
			c-3.96,0.65-9.01,4.85-8.37,9.71c0.64,4.86,1.8,8.63,11.66,8.34C101.95,336.21,193.26,334.02,218.24,333.42z"/>
		<path style="fill:#8C4C89;" d="M222.117,312.143l-0.005,0.636c-0.007,0.941-0.762,1.703-1.704,1.711
			c-15.037,0.127-125.466,1.085-130.797,1.804c-5.721,0.772-10.241,4.41-10.305,12.574c-0.064,8.164,6.667,8.829,13.402,8.882
			c6.225,0.049,111.334-2.09,127.221-2.415c1.101-0.022,1.998,0.869,1.989,1.97l-0.008,0.985c-0.008,1.059-0.852,1.919-1.911,1.939
			c-15.244,0.301-117.509,2.322-127.332,2.622c-10.617,0.325-19.573-2.807-18.04-16.063c1.533-13.256,10.736-15.585,15.635-15.546
			c4.559,0.036,114.862-0.732,130.122-0.838C221.348,310.398,222.125,311.181,222.117,312.143z"/>
		<g>
			
				<line style="fill:none;stroke:#BAB288;stroke-width:0.8164;stroke-linecap:round;stroke-linejoin:round;stroke-miterlimit:10;" x1="84.021" y1="326.187" x2="216.551" y2="323.827"/>
			
				<line style="fill:none;stroke:#BAB288;stroke-width:0.8164;stroke-linecap:round;stroke-linejoin:round;stroke-miterlimit:10;" x1="86.019" y1="331.982" x2="217.31" y2="329.898"/>
			
				<line style="fill:none;stroke:#BAB288;stroke-width:0.8164;stroke-linecap:round;stroke-linejoin:round;stroke-miterlimit:10;" x1="88.757" y1="321.185" x2="216.795" y2="319.747"/>
		</g>
		<polygon style="fill:#ACCE77;" points="88.31,326.111 94.433,326.159 94.289,344.498 91.25,341.616 87.758,344.447 		"/>
	</g>
	<g>
		<path style="fill:#F6F1C9;" d="M236.21,375.27l-147.5,4.89c0,0-14.15-4.28-12.79-17.24c1.36-12.96,11.97-15.32,12.79-15.1
			c0.82,0.23,146.96-1.37,146.96-1.37s-1.29,1.46-2.3,4.45c-1.39,4.12-2.23,11.13,1.56,21.23
			C235.3,373.14,235.73,374.19,236.21,375.27z"/>
		<path style="opacity:0.27;fill:#824C3A;" d="M236.21,375.27l-147.5,4.89c0,0-14.15-4.28-12.79-17.24
			c1.36-12.96,11.97-15.32,12.79-15.1c0.82,0.23,146.96-1.37,146.96-1.37s-1.29,1.46-2.3,4.45c-24.38,0.42-139.7,2.44-144.05,2.96
			c-4.86,0.58-9.51,6.32-6.75,13.16c2.76,6.85,8.56,8.01,14.36,7.86c4.98-0.12,108.67-2.17,138-2.75
			C235.3,373.14,235.73,374.19,236.21,375.27z"/>
		<path style="fill:#FF76DC;" d="M240.978,343.603c0-1.891-1.546-3.414-3.437-3.376c-21.622,0.431-138.293,2.755-149.647,2.965
			c-12.519,0.232-16.329,12.479-15.785,22.276c0.544,9.797,7.62,20.139,18.506,20.139c9.864,0,125.302-3.128,146.895-3.716
			c1.934-0.053,3.468-1.635,3.468-3.57v-1.013c0-2.013-1.658-3.628-3.67-3.57c-22.192,0.64-137.787,3.95-146.148,3.704
			c-9.253-0.272-12.519-9.253-12.519-14.152c0-4.899,3.538-11.294,10.07-12.451c5.944-1.053,127.175-2.687,148.937-2.973
			c1.848-0.024,3.33-1.529,3.33-3.376V343.603z"/>
		<g>
			
				<line style="fill:none;stroke:#BAB288;stroke-width:0.8164;stroke-linecap:round;stroke-linejoin:round;stroke-miterlimit:10;" x1="87.349" y1="356.759" x2="232.481" y2="354.642"/>
			
				<line style="fill:none;stroke:#BAB288;stroke-width:0.8164;stroke-linecap:round;stroke-linejoin:round;stroke-miterlimit:10;" x1="84.014" y1="363.305" x2="232.481" y2="362.684"/>
			
				<line style="fill:none;stroke:#BAB288;stroke-width:0.8164;stroke-linecap:round;stroke-linejoin:round;stroke-miterlimit:10;" x1="87.894" y1="370.639" x2="233.788" y2="368.727"/>
		</g>
		<polygon style="fill:#01A89E;" points="86.465,363.305 92.588,363.305 92.588,381.645 89.526,378.788 86.057,381.645 		"/>
	</g>
	<path style="fill:#824C3A;" d="M238.445,351.79"/>
	<g>
		<g style="opacity:0.67;">
			<path style="fill:#FFFFFF;" d="M401.793,268.357c0,0-10.069,0.544-9.797-9.253c0.272-9.797,19.186-11.43,25.31-16.057
				c6.123-4.627,5.171-11.702,5.171-11.702s6.207,11.158-7.374,17.418c-13.581,6.259-17.796,9.009-17.321,12.941
				C398.256,265.635,401.793,268.357,401.793,268.357z"/>
			<path style="fill:#FFFFFF;" d="M388.458,269.446c0,0-7.62-4.082-4.218-14.968c3.402-10.886,18.098-12.519,27.623-17.417
				c9.525-4.899,15.24-23.962,7.892-34.569c-7.348-10.607-21.511-9.791-27.765-1.354s1.094,18.506,7.898,13.88
				c0,0-8.771,1.039-6.868-7.917c1.903-8.956,11.767-9.765,15.849,0.3c4.082,10.066-1.761,22.313-15.849,26.395
				c-14.087,4.082-19.052,10.886-18.611,19.595C374.851,262.098,384.104,269.718,388.458,269.446z"/>
		</g>
		<g>
			<path style="fill:#8C4C89;" d="M466.73,304.47c-1.08,8.84-4.46,17.74-10.51,20.77c-3.34,1.67-6.9,2.46-10.25,2.75
				c-3.67,0.31-7.11,0.02-9.76-0.4c-3.22-0.5-5.3-1.18-5.3-1.18l5.99-10.76c0,0,2.08,0.87,4.85,1.48c0.7,0.15,1.45,0.28,2.23,0.38
				c3.14,0.4,6.64,0.2,8.98-1.86c2.74-2.42,4.25-8.52,4.14-13.92c-0.09-4.81-1.47-9.08-4.42-9.71c-2.2-0.47-4.24-0.55-5.95-0.44
				c-0.31,0.03-0.62,0.05-0.91,0.08c-2.63,0.27-4.3,0.92-4.3,0.92l2.18-12.93c0,0,0.47-0.06,1.28-0.13c1.74-0.15,5.03-0.3,8.51,0.18
				c4.15,0.57,8.57,2.04,10.9,5.48C466.82,288.79,467.69,296.61,466.73,304.47z"/>
			<path style="opacity:0.19;fill:#17094C;" d="M466.73,304.47c-1.08,8.84-4.46,17.74-10.51,20.77c-3.34,1.67-6.9,2.46-10.25,2.75
				c-3.67,0.31-7.11,0.02-9.76-0.4c-3.22-0.5-5.3-1.18-5.3-1.18l5.99-10.76c0,0,2.08,0.87,4.85,1.48c0.7,0.15,1.45,0.28,2.23,0.38
				c-0.44,2.33-1,4.75-0.39,6.92c5.69,0.72,11.28-2.96,14.19-7.9s3.56-10.89,3.43-16.62c-0.14-5.64-1.31-11.85-5.79-15.27
				c-6.18-4.72-6.92,2.06-8.69,6.94c-0.31,0.03-0.62,0.05-0.91,0.08c-2.63,0.27-4.3,0.92-4.3,0.92l2.18-12.93
				c0,0,0.47-0.06,1.28-0.13c1.74-0.15,5.03-0.3,8.51,0.18c4.15,0.57,8.57,2.04,10.9,5.48
				C466.82,288.79,467.69,296.61,466.73,304.47z"/>
			<path style="fill:#8C4C89;" d="M417.58,347.89c-23.41,6.6-45.73,0-45.73,0c-1.38-2.2-1.01-4.16-0.54-5.29
				c0.25-0.65,0.54-1.03,0.54-1.03c20.69,5.71,45.73-1.19,45.73-1.19c0.25,0.42,0.46,0.83,0.61,1.23
				C419.54,345.06,417.58,347.89,417.58,347.89z"/>
			<path style="fill:#FF76DC;" d="M445.82,291.66c0.06,5.92-0.45,12.61-2.11,19.23c-0.53,2.1-1.18,4.19-1.96,6.24
				c-1.38,3.65-3.19,7.18-5.54,10.46c-4.14,5.77-9.95,10.73-18.02,14.02c-6.64,2.72-14.82,4.31-24.86,4.31
				c-8.64,0-15.91-1.21-22.02-3.32c-3.01-1.04-5.74-2.29-8.21-3.73c-1.39-0.81-2.71-1.68-3.94-2.6
				c-21.51-16.01-19.67-47.47-18.08-59.38c0.36-2.7,2.65-4.72,5.37-4.72h92.77c2.66,0,4.93,1.91,5.35,4.53
				c0.14,0.84,0.28,1.78,0.41,2.82C445.41,282.8,445.79,286.99,445.82,291.66z"/>
			<path style="opacity:0.19;fill:#17094C;" d="M445.82,291.66c0.06,5.92-0.45,12.61-2.11,19.23c-0.53,2.1-1.18,4.19-1.96,6.24
				c-1.38,3.65-3.19,7.18-5.54,10.46c-4.14,5.77-9.95,10.73-18.02,14.02c1.35,3.45-0.61,6.28-0.61,6.28c-23.41,6.6-45.73,0-45.73,0
				c-1.38-2.2-1.01-4.16-0.54-5.29c-4.71-1.62-8.73-3.78-12.15-6.33c3.3,0.84,6.62,1.54,9.96,1.89c8.23,0.86,16.6-0.43,24.48-2.95
				c6.71-2.14,13.42-5.4,17.5-11.14c2.61-3.66,3.95-8.08,4.92-12.48c1.55-7.05,2.24-14.29,2.07-21.52c-0.09-3.7-0.4-7.41-0.94-11.08
				c-0.24-1.65-1.3-4.44-1.81-6.82h23.88c2.66,0,4.93,1.91,5.35,4.53c0.14,0.84,0.28,1.78,0.41,2.82
				C445.41,282.8,445.79,286.99,445.82,291.66z"/>
			<path style="opacity:0.22;fill:#FFFFFF;" d="M363.1,338.87c-1.39-0.81-2.71-1.68-3.94-2.6c-21.51-16.01-19.67-47.47-18.08-59.38
				c0.36-2.7,2.65-4.72,5.37-4.72h5.26c-0.56,0.4-1.08,0.86-1.55,1.39c-2.02,2.27-2.84,5.34-3.48,8.31
				c-2.67,12.35-3.29,25.73,2.1,37.16C352.21,326.32,357.93,332.52,363.1,338.87z"/>
		</g>
	</g>
	<g>
		<g>
			<path style="fill:#5B2663;" d="M371.08,387.37c-28.61,11.21-53.3,12.62-72.38,10.45c-14.5-1.64-25.75-5.36-33-8.4
				c-5.76-2.42-9.14-8.47-8.09-14.63c3.61-21.07,11.93-35.44,11.93-36.15l15.02-0.52l79.96-2.75c5.46,9.43,10.92,24.78,14.36,35.38
				C381.06,377.48,377.66,384.79,371.08,387.37z"/>
			<path style="opacity:0.1;fill:#FF76DC;" d="M298.7,397.82c-14.5-1.64-25.75-5.36-33-8.4c-5.76-2.42-9.14-8.47-8.09-14.63
				c3.61-21.07,11.93-35.44,11.93-36.15l15.02-0.52c-1.02,1.88-1.86,3.95-2.46,6.38c-2.28,9.3-2.08,19.22,0.66,28.4
				C285.62,382.47,291.23,391.19,298.7,397.82z"/>
		</g>
		<g>
			<g>
				<g>
					<g>
						<path style="fill:#4F2656;" d="M416.479,324.747c0,0,0.807,3.563,0,4.022C416.479,328.77,404.48,324.462,416.479,324.747z"/>
						<path style="fill:#4F2656;" d="M223.894,331.418c0,0-1.227-2.303-0.65-5.296C223.244,326.121,235.67,326.917,223.894,331.418z
							"/>
					</g>
				</g>
				<path style="fill:#4F2656;" d="M224.016,329.218c10.549-4.145,54.254-20.836,89.867-27.293c1.284-0.233,2.593-0.236,3.881-0.025
					c11.327,1.855,69.014,11.738,98.016,25.095c0.984,0.453,0.914,1.874-0.107,2.234c-11.48,4.04-56.912,19.595-94.795,26.419
					c-1.382,0.249-2.789,0.235-4.169-0.025c-12.094-2.284-73.144-14.131-92.813-24.205
					C222.97,330.944,223.05,329.597,224.016,329.218z"/>
			</g>
			<path style="fill:#6B3575;" d="M415.68,325.19c-8.49,2.99-35.51,12.26-64.32,19.64c-10.18,2.62-20.59,5-30.48,6.78
				c-1.33,0.24-2.69,0.24-4.02,0c-0.05-0.01-0.11-0.02-0.15-0.02c-12.1-2.29-73.15-14.14-92.82-24.21c-0.92-0.47-0.84-1.82,0.12-2.2
				c10.55-4.15,54.26-20.83,89.87-27.29c1.14-0.21,2.28-0.24,3.41-0.09h0.03c0.14,0.02,0.3,0.04,0.45,0.06
				c0.4,0.07,0.86,0.14,1.38,0.23c14,2.34,68.66,11.98,96.63,24.86C416.76,323.41,416.7,324.83,415.68,325.19z"/>
			<path style="opacity:0.12;fill:#FF76DC;" d="M351.36,344.83c-10.18,2.62-20.59,5-30.48,6.78c-1.33,0.24-2.69,0.24-4.02,0
				c-0.05-0.01-0.11-0.02-0.15-0.02c-12.1-2.29-73.15-14.14-92.82-24.21c-0.92-0.47-0.84-1.82,0.12-2.2
				c10.55-4.15,54.26-20.83,89.87-27.29c1.14-0.21,2.28-0.24,3.41-0.09h0.03c0.14,0.02,0.3,0.04,0.45,0.06
				c0.4,0.07,0.86,0.14,1.38,0.23c-2.76,0.97-5.6,2.35-9.26,4.2c-8.82,4.44-17.51,9.13-26.08,14.04c-2.73,1.57-5.51,3.22-7.47,5.68
				c-1.97,2.46-2.97,5.94-1.69,8.82c1.44,3.25,5.16,4.74,8.55,5.81C305.16,343.57,328.4,346.36,351.36,344.83z"/>
		</g>
		<g>
			<g>
				<path style="fill:#FDD14C;" d="M322.883,320.27c0,1.578-3.046,2.858-6.804,2.858s-6.804-1.279-6.804-2.858
					c0-1.578,3.046-2.858,6.804-2.858S322.883,318.692,322.883,320.27z"/>
				<path style="fill:#FDD14C;" d="M311.995,320.953c-0.727,0.074-1.502,0.163-2.327,0.278
					c-18.109,2.539-56.817,15.423-58.711,19.603c-0.865,1.902-2.286,23.016-2.751,30.388c-0.106,1.576-0.163,2.523-0.163,2.523
					l-2.547,0.547l-1.266,0.269c0,0,0.033-1.045,0.098-2.776c0.269-7.83,1.053-29.686,1.306-32.47
					c0.31-3.405,16.558-8.295,30.437-13.194c8.924-3.151,20.885-5.495,28.298-6.76c4.123-0.71,6.834-1.086,6.834-1.086
					L311.995,320.953z"/>
				<path style="fill:#FDD14C;" d="M250.059,378.897c-0.008,0.245-0.025,0.473-0.033,0.678c-0.041,0.727-0.531,1.355-1.225,1.576
					c-1.519,0.482-2.686,0.612-3.576,0.572c-0.596-0.033-1.061-0.147-1.429-0.278c-0.465-0.18-0.825-0.539-1.004-0.988
					c-0.074-0.163-0.114-0.343-0.131-0.531c-0.139-1.821-0.229-6.14,1.666-8.14c0.359-0.384,0.784-0.678,1.29-0.857
					c0.22-0.082,0.465-0.139,0.718-0.172c0.767-0.098,1.38,0.082,1.87,0.465C249.985,372.594,250.141,376.537,250.059,378.897z"/>
				<path style="fill:#FDD14C;" d="M248.949,404.427c-0.523,0.351-1.094,0.653-1.723,0.89c-7.895,2.996-13.333,2.449-11.161,0
					c2.18-2.449,2.727-7.895,2.996-14.696c0.18-4.491,1.674-8.042,3.731-10.165c0.784-0.808,1.641-1.404,2.547-1.772
					c0.327-0.139,0.661-0.237,0.996-0.31c1.486-0.318,2.719-0.073,3.723,0.523c2.425,1.437,3.511,4.939,3.698,7.642
					C254.002,390.049,254.95,400.459,248.949,404.427z"/>
			</g>
			<path style="opacity:0.34;fill:#FD520A;" d="M244.768,394.311c-0.09,2.637-0.131,5.487,1.38,7.65
				c0.718,1.037,1.715,1.796,2.8,2.466c-0.523,0.351-1.094,0.653-1.723,0.89c-7.895,2.996-13.333,2.449-11.161,0
				c2.18-2.449,2.727-7.895,2.996-14.696c0.18-4.491,1.674-8.042,3.731-10.165c-0.074-0.163-0.114-0.343-0.131-0.531
				c-0.139-1.821-0.229-6.14,1.666-8.14c0.269-7.83,1.053-29.686,1.306-32.47c0.31-3.405,16.558-8.295,30.437-13.194
				c8.924-3.151,20.885-5.495,28.298-6.76c-1.51,0.563-2.988,1.135-4.401,1.633c-17.48,6.115-36.74,8.091-52.318,18.117
				c-1.11,10.573-1.617,21.195-2.033,31.817c-0.041,1.118-0.082,2.245-0.122,3.364c-0.041,1.069-0.074,2.147-0.114,3.217
				c-0.016,0.392-0.024,0.784-0.041,1.176c-0.041,1.012-0.074,2.025-0.114,3.037C245.07,385.918,244.924,390.115,244.768,394.311z"
				/>
		</g>
	</g>
	<g>
		<g>
			<g>
				<path style="fill:#01A89E;" d="M451.14,407.92h-30.72c-20.24,0-42.93,0-42.93,0c-6.36,0-9.73-9.62-5.4-15.86
					c4.27-6.17,12.99-4.26,13.2-4.21c-0.16-0.3-4.22-7.47,0.01-14.53c4.32-7.21,12.5-5.29,12.5-5.29s-8.9-13.69,1.19-32.67
					c3.9-7.34,9.79-11.02,15.78-12.34c9.51-2.12,19.3,1.67,21.95,6.09c4.32,7.21,1.68,17.3,1.68,17.3s10.81-2.64,15.14,5.53
					c4.32,8.16-3.61,18.5-3.61,18.5s10.09,1.92,11.53,14.65C462.91,397.83,456.42,407.92,451.14,407.92z"/>
				<g>
					<path style="fill:#ACCE77;" d="M424.265,397.361c-0.05,0.814-0.108,1.629-0.166,2.458c-0.202,2.624-0.454,5.327-0.764,8.102
						h-2.912c0.108-1.132,0.245-2.595,0.396-4.346c0.065-0.75,0.13-1.55,0.187-2.4c0.173-2.148,0.346-4.599,0.497-7.287
						c0.058-0.923,0.108-1.874,0.151-2.854c0.714-14.257,0.829-33.718-2.234-49.186c0,0,3.597,10.487,4.851,29.119
						c0.072,0.973,0.13,1.975,0.18,2.991C424.798,380.804,424.827,388.639,424.265,397.361z"/>
					<path style="fill:#ACCE77;" d="M392.51,377.885c0,0,18.74,5.045,30.032,17.058l0.721-2.643
						C423.263,392.301,406.925,378.606,392.51,377.885z"/>
					<path style="fill:#ACCE77;" d="M380.977,397.586c0,0,28.827,1.201,41.082,6.487v-2.643
						C422.06,401.431,396.114,394.703,380.977,397.586z"/>
					<path style="fill:#ACCE77;" d="M423.263,371.879c0,0,12.974-12.253,23.545-14.175c0,0-16.337,9.13-23.065,17.058
						L423.263,371.879z"/>
					<path style="fill:#ACCE77;" d="M423.263,398.067c0,0,12.013-9.13,27.63-10.571c0,0-17.299,4.567-27.63,12.975V398.067z"/>
				</g>
			</g>
			<path style="opacity:0.13;fill:#2D3B72;" d="M451.14,407.92H435.2c1.5-0.73,3-1.47,4.5-2.2c3.36-1.65,6.86-3.41,9.09-6.42
				c2.41-3.27,2.97-7.58,2.67-11.63c-0.24-3.31-1.05-6.71-3.12-9.3c-2.08-2.59-5.64-4.19-8.81-3.22c3.14-3.8,6.28-7.96,6.86-12.86
				c0.16-1.37,0.04-2.8-0.33-4.16c-0.03-0.08-0.05-0.17-0.08-0.26c-1.01-3.38-3.55-6.26-6.99-6.57c-2.91-0.27-5.65,1.29-8.17,2.79
				c2.13-8.17,1.66-17.5-3.46-24.2c-2.96-3.87-7.72-6.45-12.59-6.87c9.51-2.12,19.3,1.67,21.95,6.09c4.32,7.21,1.68,17.3,1.68,17.3
				s10.81-2.64,15.14,5.53c4.32,8.16-3.61,18.5-3.61,18.5s10.09,1.92,11.53,14.65C462.91,397.83,456.42,407.92,451.14,407.92z"/>
		</g>
		<path style="opacity:0.28;fill:#D1FF80;" d="M397.659,348.989c-0.751,4.106-0.773,8.932,2.298,11.759
			c0.524,0.483,1.256,0.905,1.92,0.645c0.708-0.277,0.931-1.155,1.028-1.909c0.645-5.009,0.012-10.217,1.523-15.036
			c1.299-4.141,4.74-6.784,6.334-10.564c1.038-2.462,0.253-4.838-3.137-3.652C401.799,332.269,398.609,343.795,397.659,348.989z"/>
		<path style="opacity:0.28;fill:#D1FF80;" d="M388.468,375.316c-1.046,1.897-1.51,4.063-1.737,6.218
			c-0.167,1.59-0.093,3.462,1.188,4.419c0.351,0.263,0.835,0.429,1.227,0.233c0.232-0.116,0.39-0.339,0.518-0.566
			c1.154-2.055,0.385-4.746,1.395-6.875c0.589-1.242,1.709-2.134,2.58-3.199C397.694,370.585,390.808,371.072,388.468,375.316z"/>
		<path style="opacity:0.28;fill:#D1FF80;" d="M377.013,391.477c-1.936,0.356-2.856,2.62-2.995,4.583
			c-0.104,1.477,0.061,3.038,0.88,4.272c0.819,1.234,2.421,2.029,3.826,1.56c-0.529-3.138,0.077-6.455,1.682-9.203
			c-0.874-0.968-2.108-1.605-3.403-1.756"/>
	</g>
	<g>
		<g>
			<path style="opacity:0.18;fill:#560A00;" d="M181.45,348.41l0.34-0.04c-0.01,0.05-0.02,0.1-0.02,0.15
				C181.66,348.49,181.56,348.45,181.45,348.41z"/>
			<g>
				<path style="fill:#8C4C89;" d="M192.36,359.37c-2.85,0.21-10.61-0.81-11.94-1.12c-1.32-0.3-2.24-2.14-2.75-2.35
					c-0.51-0.2-0.41,1.84-1.23,1.64c-0.17-0.04-0.49-0.12-0.87-0.2c-1.4-0.32-3.72-0.82-3.72-0.82s-0.2-1.33,0-3.47
					c0.2-2.15,1.37-3.17,1.37-3.17s0.08,0.01,0.23,0.03c0.47,0.07,1.59,0.23,2.98,0.44c2.49,0.36,5.82,0.86,7.63,1.16
					c0.56,0.09,0.97,0.16,1.17,0.21c1.34,0.3,5.3,2.25,7.54,3.78C195.02,357.03,195.22,359.17,192.36,359.37z"/>
				<path style="fill:#FFA67A;" d="M186.85,354.78c-2.29,0.1-8.14-0.67-11.18-1.75c-0.09-0.03-0.17-0.06-0.25-0.09
					c-2.84-1.08-2.2-1.97-1.97-3.03c0.01-0.04,0.02-0.09,0.03-0.13c0.21-1.12,0.51-3.98,0.51-3.98h8.17c0,0-0.23,1.19-0.35,2.36
					c-0.01,0.07-0.02,0.14-0.02,0.21c-0.01,0.05-0.02,0.1-0.02,0.15c-0.01,0.08-0.01,0.16-0.02,0.24c-0.08,1.01,0.84,2.01,2.31,2.75
					c0.47,0.23,1,0.45,1.57,0.62C187.97,352.84,189.2,354.68,186.85,354.78z"/>
				<path style="opacity:0.18;fill:#560A00;" d="M182.16,345.8c0,0-0.23,1.19-0.35,2.36c-0.55,0.02-1.1,0.05-1.65,0.07
					c-0.66,0.03-1.32,0.06-1.93,0.31c-0.83,0.34-1.4,1.01-1.8,1.81c-0.38,0.74-0.59,1.6-0.72,2.42c-0.01,0.09-0.03,0.17-0.04,0.26
					c-0.2,1.43-0.23,2.88-0.1,4.31c-1.4-0.32-3.72-0.82-3.72-0.82s-0.2-1.33,0-3.47c0.2-2.15,1.37-3.17,1.37-3.17
					s0.08,0.01,0.23,0.03c0.01-0.04,0.02-0.09,0.03-0.13c0.21-1.12,0.51-3.98,0.51-3.98H182.16z"/>
			</g>
			<path style="opacity:0.14;fill:#560A00;" d="M158.56,349.09c0.14,0.02,0.28,0.03,0.42,0.04l-2.13,0.15
				C157.42,349.22,157.99,349.15,158.56,349.09z"/>
			<g>
				<path style="fill:#8C4C89;" d="M169.64,360.33c-2.86,0.21-10.61-0.82-11.94-1.12c-1.33-0.31-2.25-2.14-2.76-2.35
					c-0.51-0.2-0.4,1.84-1.22,1.63c-0.3-0.07-1.01-0.23-1.77-0.4c-1.32-0.29-2.82-0.62-2.82-0.62s-0.21-1.32,0-3.47
					c0.2-2.14,1.37-3.16,1.37-3.16s0.08,0.01,0.23,0.03c0.42,0.06,1.37,0.2,2.57,0.37c2.52,0.38,6.13,0.91,8.04,1.23
					c0.56,0.09,0.97,0.16,1.17,0.21c1.34,0.29,5.29,2.24,7.54,3.77C172.29,357.98,172.5,360.13,169.64,360.33z"/>
				<path style="fill:#FFA67A;" d="M164.13,355.74c-2.35,0.1-8.47-0.72-11.43-1.84c-0.04-0.01-0.08-0.03-0.11-0.05
					c-2.72-1.05-2.09-1.93-1.86-2.98c0.01-0.04,0.02-0.09,0.03-0.13c0.2-1.12,0.51-3.98,0.51-3.98h8.16c0,0-0.21,1.13-0.33,2.27
					c-0.01,0.03-0.01,0.06-0.01,0.09c0,0.01,0,0.01,0,0.01c-0.03,0.2-0.05,0.4-0.06,0.59c-0.08,1,0.84,2.01,2.31,2.75
					c0.47,0.23,0.99,0.45,1.56,0.62C165.25,353.8,166.48,355.64,164.13,355.74z"/>
				<path style="opacity:0.18;fill:#560A00;" d="M159.1,349.03c-0.18,0.02-0.36,0.04-0.54,0.06c-1.71-0.16-3.41-0.5-4.5,0.69
					c-0.38,0.4-0.58,0.93-0.76,1.46c-0.02,0.06-0.04,0.12-0.06,0.18c-0.25,0.8-0.47,1.61-0.65,2.43c-0.32,1.4-0.53,2.82-0.64,4.24
					c-1.32-0.29-2.82-0.62-2.82-0.62s-0.21-1.32,0-3.47c0.2-2.14,1.37-3.16,1.37-3.16s0.08,0.01,0.23,0.03
					c0.01-0.04,0.02-0.09,0.03-0.13c0.2-1.12,0.51-3.98,0.51-3.98h8.16C159.43,346.76,159.22,347.89,159.1,349.03z"/>
			</g>
			<path style="opacity:0.14;fill:#560A00;" d="M161.16,348.97c-0.65,0.2-1.36,0.22-2.07,0.16h-0.11l0.11-0.01L161.16,348.97z"/>
			<g>
				<path style="fill:#01A89E;" d="M160.97,347.37c-1.45,0.4-3.38,0.49-5.18,0.44c-2.77-0.07-5.23-0.44-5.23-0.44
					s-0.21-8.78-1.84-18.57c-1.63-9.8-4.08-16.13-13.68-16.54c-9.59-0.41-21.43,1.43-25.92-6.32c-4.49-7.76-1.84-16.57-1.84-16.57
					s17.48,2.99,24.98,4.83c0.11,0.03,0.21,0.05,0.31,0.08c5.38,1.35,16.3,2.6,23.1,8.75c2.15,1.94,3.89,4.37,4.9,7.45
					c0.15,0.44,0.28,0.9,0.4,1.37C164.44,325.94,160.97,347.37,160.97,347.37z"/>
				<path style="fill:#01A89E;" d="M183.42,346.11c-3.7,0.91-10.4-0.32-10.4-0.32s0.06-8.78-1.27-18.62
					c-1.24-9.12-3.26-15.28-11.18-16.69c-0.62-0.12-1.29-0.2-1.99-0.25c-2.75-0.2-5.69-0.22-8.59-0.34
					c-7.19-0.29-14.09-1.16-17.12-6.78c-1.25-2.32-1.24-5.53-0.61-8.91c1.52-8.13,6.66-17.25,6.66-17.25s12.13,12.6,19.39,14.66
					c4.53,1.29,12.43,2.85,18.47,7.28c3.63,2.67,6.59,6.39,7.73,11.72C187.54,324.8,183.42,346.11,183.42,346.11z"/>
				<path style="opacity:0.19;fill:#1B2D66;" d="M176.78,298.89c-1.87,0.66-3.89,1.1-5.7,1.61c-4.23,1.19-8.57,2.11-12.97,2.42
					c-0.81,0.06-1.62,0.1-2.44,0.11c-4.01,0.07-8.03-0.43-11.85-1.7c-1.6-0.53-3.54-1.14-4.79-0.02c-1.55,1.39-0.37,4.15,1.49,5.1
					c1.85,0.96,4.06,0.88,6.05,1.51c1.28,0.4,2.42,1.09,3.42,1.97c1.7,1.49,2.97,3.55,3.73,5.71c1.21,3.42,1.33,7.12,1.44,10.74
					c0.21,7.16,0.42,14.32,0.63,21.47c-2.77-0.07-5.23-0.44-5.23-0.44s-0.21-8.78-1.84-18.57c-1.63-9.8-4.08-16.13-13.68-16.54
					c-9.59-0.41-21.43,1.43-25.92-6.32c-4.49-7.76-1.84-16.57-1.84-16.57s17.48,2.99,24.98,4.83c1.52-8.13,6.66-17.25,6.66-17.25
					s12.13,12.6,19.39,14.66C162.84,292.9,170.74,294.46,176.78,298.89z"/>
			</g>
		</g>
		<g>
			<g>
				<g>
					<path style="fill:#FFA67A;" d="M167.52,280.76l-0.28,2.21l-0.88,6.93c-9.74,1.95-22.78,3.9-26.12-4.27
						c-3.35-8.16-1.52-24.14-1.52-24.14l11.87,0.88c0,0-0.17,1.71-0.25,4.11c-0.01,0.07-0.01,0.13-0.01,0.2
						c0,0.11-0.01,0.22-0.01,0.33c-0.16,5.77,0.24,14.85,4.36,14.72C160.71,281.53,167.52,280.76,167.52,280.76z"/>
					<g>
						<g>
							<path style="fill:#FFA67A;" d="M173.95,281.05c-0.03,0.26-0.08,0.63-0.15,1.08c-0.05,0.32-0.11,0.67-0.18,1.06
								c-0.03,0.17-0.06,0.35-0.1,0.53c-0.12,0.7-0.26,1.47-0.4,2.24c-0.01,0.04-0.02,0.09-0.02,0.14
								c-0.15,0.77-0.29,1.54-0.43,2.22c0.01,0.01,0,0.02,0,0.02c-0.19,1.03-0.36,1.87-0.43,2.23c-0.03,0.14-0.04,0.21-0.04,0.21
								c-1.46-0.78-5.84-0.88-5.84-0.88l0.88-6.93l0.28-2.21c0.37-0.09,0.73-0.15,1.09-0.19c1.55-0.2,2.99-0.04,3.97,0.14
								c0.33,0.07,0.6,0.13,0.82,0.19C173.75,280.98,173.95,281.05,173.95,281.05z"/>
							<path style="fill:#FFA67A;" d="M176.87,293.42c-0.78,0.13-1.37-1.49-2.34-1.98c-0.62-0.31-1.64-0.66-2.29-0.87
								c-0.37-0.12-0.63-0.2-0.63-0.2l-0.39-2.24c0,0,0.5,0,1.21,0.14c0.07,0.01,0.15,0.03,0.24,0.05c0.55,0.12,1.2,0.32,1.85,0.66
								c0.41,0.21,0.81,0.48,1.18,0.81C177.55,291.44,177.64,293.29,176.87,293.42z"/>
							<path style="fill:#FFA67A;" d="M178.12,291.58c-0.84,0.14-1.48-1.62-2.53-2.15c-0.3-0.15-0.68-0.3-1.07-0.45
								c-0.72-0.27-1.48-0.52-1.85-0.64c-0.15-0.04-0.24-0.07-0.24-0.07l-0.43-2.42c0,0,0.38,0,0.96,0.08
								c0.05,0.01,0.1,0.02,0.16,0.03c1.01,0.17,2.53,0.6,3.74,1.68c0.58,0.52,1.01,1.06,1.28,1.57c0,0.01,0.01,0.01,0.01,0.01
								C178.84,290.45,178.71,291.48,178.12,291.58z"/>
							<path style="fill:#FFA67A;" d="M178.67,289.36c-0.18,0.03-0.35-0.03-0.52-0.14c0,0-0.01,0-0.01-0.01
								c-0.61-0.42-1.18-1.58-2-1.99c-0.9-0.45-2.58-0.98-3.04-1.12c-0.08-0.03-0.12-0.04-0.12-0.04l-0.02-0.13l-0.41-2.3
								c0,0,0.38,0,0.97,0.09c1.01,0.15,2.62,0.57,3.89,1.7c0.06,0.05,0.11,0.11,0.17,0.17c0.16,0.14,0.31,0.3,0.42,0.45
								c0.01,0,0.01,0.01,0.02,0.02C179.42,287.66,179.42,289.24,178.67,289.36z"/>
							<path style="fill:#FFA67A;" d="M178.67,286.29c-0.23,0.04-0.44-0.06-0.65-0.23c-0.01-0.01-0.01-0.02-0.02-0.02
								c-0.14-0.13-0.28-0.28-0.42-0.45c-0.42-0.51-0.87-1.15-1.44-1.44c-0.68-0.35-1.82-0.73-2.52-0.96
								c-0.38-0.12-0.64-0.2-0.64-0.2l-0.13-0.75l-0.19-1.08l-0.08-0.45l-0.03-0.15c0,0,0.5,0,1.23,0.13
								c0.81,0.15,1.91,0.46,2.91,1.13c0.25,0.15,0.49,0.33,0.72,0.54C179.41,284.15,179.52,286.15,178.67,286.29z"/>
							<path style="fill:#FFA67A;" d="M168.595,280.563c0,0,0.292-1.04,1.979-1.04c1.687,0,3.12-0.779,3.701-1.038
								c0.581-0.259,1.1,1.557-0.976,2.465C171.222,281.858,168.595,280.563,168.595,280.563z"/>
						</g>
					</g>
				</g>
				<path style="opacity:0.14;fill:#702500;" d="M150.34,266.48c0.08-2.4,0.25-4.11,0.25-4.11l-11.87-0.88
					c0,0-1.83,15.98,1.52,24.14c3.34,8.17,16.38,6.22,26.12,4.27c0,0,4.38,0.1,5.84,0.88c0,0,0.01-0.07,0.04-0.21
					c0.65,0.21,1.67,0.56,2.29,0.87c0.97,0.49,1.56,2.11,2.34,1.98c0.77-0.13,0.68-1.98-1.17-3.63c-0.37-0.33-0.77-0.6-1.18-0.81
					c0.39,0.15,0.77,0.3,1.07,0.45c1.05,0.53,1.69,2.29,2.53,2.15c0.59-0.1,0.72-1.13,0.03-2.36c0.17,0.11,0.34,0.17,0.52,0.14
					c0.75-0.12,0.75-1.7-0.65-3.3c0.21,0.17,0.42,0.27,0.65,0.23c0.85-0.14,0.74-2.14-1.26-3.93c-0.23-0.21-0.47-0.39-0.72-0.54
					c-0.96,0.09-1.93,0.2-2.89,0.31c-0.32,0.03-0.63,0.07-0.95,0.11c-1.87,0.22-3.74,0.47-5.61,0.73c-2.84,0.4-5.67,0.84-8.49,1.3
					c-1.83,0.3-3.69,0.61-5.53,0.36c-1.83-0.24-3.68-1.13-4.62-2.73c-0.71-1.22-0.83-2.7-0.92-4.11c-0.19-2.72-0.38-5.43-0.56-8.15
					c-0.03-0.48-0.06-0.98,0.14-1.42c0.49-1.07,1.81-1.04,3.06-1.21L150.34,266.48z"/>
			</g>
			<path style="fill:#7A75F6;" d="M140.319,243.14c1.665-0.683,6.945,1.154,9.102,8.094s3.396,13.88,2.47,14.492
				c-0.926,0.612-8.68,0.48-8.68,0.48L140.319,243.14z"/>
		</g>
		<path style="fill:#9BABDC;" d="M154.691,300.858c0,0-2.512-0.02-3.12-2.268C150.964,296.342,157.806,296.801,154.691,300.858z"/>
		<g>
			<polygon style="fill:#9BABDC;" points="153.101,304.272 117.683,295.604 117.819,293.729 153.92,302.867 			"/>
			<path style="fill:#8294BF;" d="M117.819,293.729c0,0,30.617-4.49,37.965-4.763c0,0,23.269,3.011,34.835,6.948
				c0,0-21.779,5.815-35.587,7.122C155.031,303.037,120.268,295.771,117.819,293.729z"/>
			<path style="fill:#C5D6FF;" d="M151.05,301.38c0.712-4.628,2.715-16.182,6.328-26.447c0.55-1.562,1.861-2.727,3.477-3.087
				c6.227-1.389,22.671-4.777,36.223-5.101c1.06-0.025,1.877,0.919,1.682,1.961c-0.834,4.449-3.023,15.503-5.725,24.188
				c-0.501,1.61-1.796,2.848-3.434,3.252c-6.679,1.647-24.836,5.953-36.759,7.134C151.767,303.386,150.886,302.449,151.05,301.38z"
				/>
			<path style="fill:#C5D6FF;" d="M197.079,266.744c0,0,2.398,0.179,3.139,2.016C200.96,270.597,194.422,270.239,197.079,266.744z"
				/>
			<path style="fill:#9BABDC;" d="M200.19,269.927c-0.83,4.45-3.02,15.51-5.73,24.19c-0.06,0.2-0.13,0.39-0.22,0.58
				c-0.6,1.32-1.77,2.32-3.21,2.67c-6.68,1.65-24.84,5.96-36.76,7.14c-1.07,0.1-1.96-0.83-1.79-1.9c0.71-4.63,2.71-16.18,6.33-26.45
				c0.55-1.56,1.86-2.73,3.47-3.09c0.44-0.1,0.92-0.2,1.45-0.32c7.06-1.53,22.17-4.47,34.78-4.78
				C199.57,267.947,200.38,268.887,200.19,269.927z"/>
			<path style="opacity:0.13;fill:#2D3B72;" d="M194.24,294.697c-0.6,1.32-1.77,2.32-3.21,2.67c-6.68,1.65-24.84,5.96-36.76,7.14
				c-1.07,0.1-1.96-0.83-1.79-1.9c0.71-4.63,2.71-16.18,6.33-26.45c0.55-1.56,1.86-2.73,3.47-3.09c0.44-0.1,0.92-0.2,1.45-0.32
				c-0.75,2.26-2.11,4.58-2.58,6.37c-1.16,4.38-1.57,8.96-1.19,13.48c0.17,1.96,0.54,4.04,1.86,5.5c1.02,1.14,2.49,1.77,3.98,2.07
				c3.19,0.63,6.47-0.14,9.63-0.91C181.71,297.737,187.97,296.217,194.24,294.697z"/>
		</g>
		<path style="fill:#DEE9FF;" d="M179.041,287.045c-0.425,1.022-1.26,1.647-1.865,1.395c-0.605-0.252-0.751-1.284-0.326-2.307
			c0.425-1.022,1.26-1.647,1.865-1.395C179.32,284.99,179.466,286.022,179.041,287.045z"/>
		<g>
			<g>
				<g>
					<path style="fill:#7A75F6;" d="M146.75,285.93c0.07,0.37-0.43,0.75-1.36,1.12c-6.75,2.72-36.33,5.39-38.31,5.21
						c-2.25-0.2-3.58-38.58,8.57-48.78c1.49-1.25,8.46-3.06,16.63-2.25c6.94,0.7,8.99,2.17,10.28,5.97
						c0.24,0.68,0.44,1.43,0.65,2.27C144.57,254.98,146.2,282.87,146.75,285.93z"/>
					<path style="opacity:0.19;fill:#17094C;" d="M145.39,287.05c-6.75,2.72-36.33,5.39-38.31,5.21c-2.25-0.2-3.58-38.58,8.57-48.78
						c1.49-1.25,8.46-3.06,16.63-2.25c6.94,0.7,8.99,2.17,10.28,5.97c-0.09,0.39-0.2,0.78-0.32,1.17c-0.6,2.01-2.33,4.35-4.29,3.58
						c-0.83-0.33-1.34-1.14-2-1.75c-0.65-0.61-1.73-1.02-2.4-0.43c-0.68,0.59-0.42,1.69-0.58,2.58c-0.32,1.89-2.46,2.75-3.9,4.02
						c-2.21,1.94-2.86,5.07-3.31,7.98c-0.64,4.26-1.11,8.55-1.39,12.84c-0.09,1.35-0.15,2.77,0.44,3.99
						c1.17,2.43,4.41,3.07,7.06,2.59c2.66-0.47,5.15-1.74,7.84-1.95c1.14-0.08,2.37,0.05,3.27,0.76c0.79,0.61,1.22,1.55,1.61,2.47
						C144.87,285.71,145.14,286.38,145.39,287.05z"/>
				</g>
				<path style="fill:#FFFFFF;" d="M133.207,245.586c1.246-0.139,2.585,2.585,3.945,2.722c1.361,0.136,3.887-2.994,3.304-6.26
					c-0.583-3.266-7.931-2.857-11.197-2.585c-3.266,0.272-5.307,2.994-5.443,4.763c-0.136,1.769,5.307,5.851,6.804,5.171
					C132.118,248.716,131.983,245.722,133.207,245.586z"/>
			</g>
			<g>
				<g>
					<g>
						<path style="fill:#FFA67A;" d="M135.04,285.93l-0.56,4.38l-0.66,5.22c-10.21,2.04-23.88,4.08-27.39-4.48
							c-3.51-8.57-1.6-25.32-1.6-25.32l12.46,0.92c0,0-0.11,1.11-0.2,2.82c-0.3,5.61-0.38,17.64,4.48,17.48
							C127.9,286.75,135.04,285.93,135.04,285.93z"/>
						<g>
							<g>
								<path style="fill:#FFA67A;" d="M141.78,286.24c0,0.01,0,0.01,0,0.02c-0.05,0.49-0.2,1.39-0.38,2.44
									c-0.01,0.03-0.01,0.07-0.02,0.1c-0.12,0.67-0.25,1.39-0.38,2.13c-0.02,0.09-0.04,0.18-0.05,0.27
									c-0.05,0.26-0.1,0.52-0.15,0.78c-0.12,0.66-0.25,1.3-0.36,1.89c0,0.01,0,0.02-0.01,0.03c-0.26,1.4-0.47,2.45-0.49,2.53v0.01
									c-0.01-0.01-0.02-0.01-0.04-0.02c-0.34-0.17-0.83-0.31-1.39-0.42c-0.03-0.02-0.05-0.02-0.05-0.02
									c-1.95-0.39-4.64-0.45-4.64-0.45l0.66-5.22l0.56-4.38c0.38-0.09,0.76-0.16,1.13-0.2c2.18-0.27,4.13,0.11,5.05,0.35
									C141.58,286.17,141.78,286.24,141.78,286.24z"/>
								<path style="fill:#FFA67A;" d="M144.84,299.21c-0.82,0.14-1.59-1.41-2.61-1.92c-0.51-0.26-1.47-0.59-2.29-0.85v-0.01
									c-0.01,0-0.03-0.01-0.04-0.01c-0.66-0.21-1.23-0.38-1.39-0.42c-0.03-0.02-0.05-0.02-0.05-0.02l0.46-2.31
									c0,0,0.52,0,1.26,0.15c0.09,0.01,0.17,0.03,0.26,0.05c0.88,0.19,1.99,0.57,2.95,1.34c0,0.01,0.01,0.01,0.01,0.01
									c0.07,0.05,0.15,0.12,0.22,0.18C145.56,297.14,145.66,299.08,144.84,299.21z"/>
								<path style="fill:#FFA67A;" d="M146.66,296.68c-0.06,0.34-0.23,0.56-0.5,0.6c-0.89,0.15-1.59-1.3-2.76-2.06
									c0,0-0.01,0-0.01-0.01c-0.83-0.53-2.36-1.09-2.96-1.31c-0.16-0.05-0.25-0.08-0.25-0.08l-0.31-2.31l-0.13-0.99
									c0,0,0.41,0.1,1.03,0.33c0.07,0.02,0.15,0.05,0.23,0.08c1.06,0.4,2.6,1.12,3.83,2.22c0.68,0.62,1.16,1.25,1.45,1.84
									C146.62,295.66,146.73,296.26,146.66,296.68z"/>
								<path style="fill:#FFA67A;" d="M140.802,291.136c0,0,2.159,0.82,3.223,1.451c1.064,0.631,1.594,2.516,2.487,2.433
									c0.893-0.083,0.933-2.187-1.028-4.213c-1.962-2.026-4.94-2.24-4.94-2.24L140.802,291.136z"/>
								<path style="fill:#FFA67A;" d="M140.949,288.669c0,0,2.212,0.664,3.318,1.217c1.106,0.553,1.77,2.395,2.655,2.248
									c0.885-0.147,0.774-2.248-1.327-4.129c-2.102-1.88-5.088-1.88-5.088-1.88L140.949,288.669z"/>
								<path style="fill:#FFA67A;" d="M136.166,285.731c0,0,0.306-1.091,2.075-1.091s3.272-0.816,3.881-1.089
									c0.609-0.272,1.154,1.633-1.024,2.585C138.922,287.089,136.166,285.731,136.166,285.731z"/>
							</g>
						</g>
					</g>
					<path style="opacity:0.14;fill:#702500;" d="M146.66,296.68c-0.06,0.34-0.23,0.56-0.5,0.6c-0.89,0.15-1.59-1.3-2.76-2.06
						c0.07,0.05,0.15,0.12,0.22,0.18c1.94,1.74,2.04,3.68,1.22,3.81c-0.82,0.14-1.59-1.41-2.61-1.92c-0.51-0.26-1.47-0.59-2.29-0.85
						c-0.01-0.01-0.02-0.01-0.04-0.02c-0.66-0.21-1.23-0.38-1.39-0.42c-0.03-0.02-0.05-0.02-0.05-0.02
						c-1.95-0.39-4.64-0.45-4.64-0.45c-10.21,2.04-23.88,4.08-27.39-4.48c-3.51-8.57-1.6-25.32-1.6-25.32l12.46,0.92
						c0,0-0.11,1.11-0.2,2.82c-1.88,0.4-3.75,0.81-5.63,1.22c-0.6,0.13-1.25,0.29-1.68,0.73c-0.4,0.39-0.56,0.96-0.69,1.5
						c-1.08,4.6-0.71,9.66,1.7,13.73c2.41,4.07,7.02,6.93,11.74,6.6c4.08-0.29,7.78-2.8,11.87-2.94h0.08c1.9-0.05,3.7,0.41,5.39,1.2
						c0.32,0.15,0.63,0.3,0.93,0.47C142.96,293.17,144.93,294.87,146.66,296.68z"/>
				</g>
				<g>
					<path style="fill:#7A75F6;" d="M120.35,267.77c-1.5,0.3-5.64,0.43-9.5,0.3c-4.02-0.14-7.74-0.58-7.85-1.42
						c-0.21-1.53-0.41-8.68,3.67-16.44c3.69-7.01,8.88-8.35,12.26-6.01c0.36,0.24,0.7,0.53,1.01,0.86
						C123.2,248.48,123.41,267.15,120.35,267.77z"/>
					<path style="opacity:0.19;fill:#17094C;" d="M118.93,244.2c-0.72,0.07-1.51,0.04-2.03,0.19c-2.26,0.64-3.64,2.51-4.6,4.57
						c-2.74,5.9-2.45,12.58-1.45,19.11c-4.02-0.14-7.74-0.58-7.85-1.42c-0.21-1.53-0.41-8.68,3.67-16.44
						C110.36,243.2,115.55,241.86,118.93,244.2z"/>
				</g>
			</g>
		</g>
		<g>
			<g>
				<path style="fill:#5F3713;" d="M159.06,234.84c-1.63,1.49-9.25,4.08-17.01,3.4c-2.46-0.22-5.08-0.5-7.76-0.83
					c-5.77-0.7-11.8-1.6-17-2.44c-7.62-1.22-8.44-1.9-8.03-8.71c0.41-6.8,7.21-24.22,9.39-27.35c2.17-3.13,6.8-5.3,17.15-5.03
					c0.57,0.02,1.1,0.04,1.61,0.07c8.78,0.49,9.15,2.92,9.15,2.92c-0.11-0.81,5.15-3.26,8.83,3.27
					C159.06,206.67,160.69,233.34,159.06,234.84z"/>
				<path style="opacity:0.46;fill:#3A1700;" d="M135.53,201.02c-1.43,0.87-3.04,1.42-4.45,2.31c-4.03,2.55-5.88,7.65-5.62,12.41
					c0.27,4.75,2.35,9.21,4.74,13.33c1.52,2.63,3.24,5.46,4.09,8.34c-5.77-0.7-11.8-1.6-17-2.44c-7.62-1.22-8.44-1.9-8.03-8.71
					c0.41-6.8,7.21-24.22,9.39-27.35c2.17-3.13,6.8-5.3,17.15-5.03c0.57,0.02,1.1,0.04,1.61,0.07c0.29,0.32,0.53,0.7,0.72,1.16
					C139.13,197.59,137.64,199.75,135.53,201.02z"/>
			</g>
			<g>
				<path style="fill:#FFA67A;" d="M155.75,225.3c-0.34,1.27-0.81,2.44-1.41,3.53c-1.13,2-2.73,3.67-4.92,4.92
					c-0.19,0.11-0.37,0.21-0.55,0.3c-6.35,3.4-9.94,1.5-10.48,2.55c-0.55,1.1-1.1,5.86-1.1,5.86s-1.71,2.85-5.01,2.58
					c-3.29-0.27-4.79-3.67-4.79-3.67s0.55-12.47,0.41-13.32c0,0-3.13,1.2-4.49-2.47c-1.36-3.67,2.31-6.6,4.76-4.52
					c0,0-1.5-6.91,3.54-9.9c5.03-2.99,12.52-5.04,15.38-12.24c0,0,1.38,0.88,3.08,2.56c0.58,0.57,1.21,1.25,1.82,2.02
					c0.13,0.15,0.25,0.3,0.36,0.46c1.74,2.3,3.35,5.36,3.81,9.1C156.72,217.59,156.71,221.77,155.75,225.3z"/>
				<path style="opacity:0.14;fill:#702500;" d="M147.09,198.92c0,0,1.38,0.88,3.08,2.56c-0.26,0.07-0.52,0.18-0.76,0.35
					c-1.2,0.83-1.3,2.5-1.8,3.87c-1.04,2.81-3.91,4.41-6.17,6.38c-3.2,2.81-5.37,6.76-6.02,10.97c-0.34,2.19-0.26,4.51,0.7,6.51
					c1.98,4.08,7.26,5.69,11.69,4.74c0.35-0.07,0.71-0.16,1.06-0.25c-6.35,3.4-9.94,1.5-10.48,2.55c-0.55,1.1-1.1,5.86-1.1,5.86
					s-1.71,2.85-5.01,2.58c-3.29-0.27-4.79-3.67-4.79-3.67s0.55-12.47,0.41-13.32c0,0-3.13,1.2-4.49-2.47
					c-1.36-3.67,2.31-6.6,4.76-4.52c0,0-1.5-6.91,3.54-9.9C136.74,208.17,144.23,206.12,147.09,198.92z"/>
				<path style="fill:#F96BA5;" d="M125.858,223.27c0.753-0.439,2.449,1.485,1.361,2.308
					C126.131,226.4,124.225,224.223,125.858,223.27z"/>
			</g>
			<g>
				<g>
					<ellipse style="fill:#562500;" cx="137.833" cy="221.637" rx="1.225" ry="2.177"/>
					<path style="fill:#562500;" d="M154.34,221.637c0,1.202-0.548,2.177-1.225,2.177c-0.676,0-1.225-0.975-1.225-2.177
						c0-1.202,0.548-2.177,1.225-2.177C153.791,219.46,154.34,220.435,154.34,221.637z"/>
				</g>
				<g>
					<path style="fill:#A82C65;" d="M148.186,226.655c-0.949,0.35-2.139,0.506-3.47,0.366c-0.63-0.062-1.19-0.233-1.665-0.474
						c-1.929-0.941-2.622-2.995-1.579-3.929c0.132-0.117,0.265-0.21,0.397-0.296c0.739-0.443,1.525-0.366,2.373-0.179
						c0.016,0,0.023,0,0.039,0.008c0.506,0.109,1.042,0.249,1.603,0.335c0.272,0.039,0.56,0.047,0.84,0.039
						c0.07,0,0.14,0,0.21-0.008c0.856-0.054,1.704-0.233,2.373-0.078c0.498,0.117,0.887,0.412,1.112,1.081
						C150.839,224.772,149.906,226.025,148.186,226.655z"/>
					<path style="fill:#F96BA5;" d="M148.186,226.655c-0.949,0.35-2.139,0.506-3.47,0.366c-0.63-0.062-1.19-0.233-1.665-0.474
						c0.529-0.436,1.455-1.004,2.699-1.081C146.918,225.395,147.72,226.064,148.186,226.655z"/>
					<g>
						<path style="fill:#FFFFFF;" d="M144.242,222.143c-0.202,0.529-0.568,1.12-1.214,1.12c-0.661,0-0.996-0.506-1.159-0.941
							C142.609,221.878,143.394,221.956,144.242,222.143z"/>
						<path style="fill:#FFFFFF;" d="M149.307,222.439c-0.202,0.521-0.568,1.081-1.198,1.081c-0.7,0-1.027-0.552-1.175-1.004
							C147.79,222.462,148.638,222.283,149.307,222.439z"/>
						<path style="fill:#FFFFFF;" d="M145.884,222.485c0.272,0.039,0.56,0.047,0.84,0.039c-0.21,0.49-0.568,0.996-1.167,0.996
							c-0.934,0-1.206-0.972-1.276-1.369C144.787,222.26,145.324,222.4,145.884,222.485z"/>
					</g>
				</g>
				<g>
					<ellipse style="fill:#F96BA5;" cx="135.724" cy="227.42" rx="3.439" ry="2.245"/>
					<path style="fill:#F96BA5;" d="M155.749,225.303c-0.343,1.266-0.808,2.441-1.413,3.527c-1.38-0.114-2.449-0.89-2.449-1.821
						c0-1.012,1.266-1.837,2.817-1.837C155.071,225.172,155.43,225.221,155.749,225.303z"/>
				</g>
				<g>
					<path style="fill:#5F3713;" d="M135.724,215.514c1.171-0.611,2.381,0,2.654-1.089c0.272-1.089-3.13-1.361-4.627,0
						C132.254,215.786,134.159,216.33,135.724,215.514z"/>
					<path style="fill:#5F3713;" d="M153.651,215.514c-1.171-0.611-2.381,0-2.653-1.089c-0.272-1.089,3.13-1.361,4.626,0
						C157.121,215.786,155.216,216.33,153.651,215.514z"/>
				</g>
			</g>
		</g>
	</g>
	<g>
		<g>
			<g>
				<path style="fill:#75B0FE;" d="M301.907,159.033c-10.404,2.418-20.633,0.93-22.865,2.79c-2.155,1.805-3.096,19.277-2.473,27.296
					c0.033,0.47-0.252,0.897-0.7,1.039c-1.368,0.449-4.431,1.247-7.68,0.777c-0.405-0.066-0.722-0.372-0.82-0.777
					c-0.153-0.667-0.416-1.827-0.722-3.337c-1.543-7.472-4.431-23.533-2.79-32.055c1.083-5.656,9.048-8.632,17.056-10.131
					c0.011,0.011,0.011,0,0.011,0c8.063-1.499,16.17-1.51,17.384-1.269c2.418,0.492,13.446,1.608,13.446,1.608
					S312.312,156.626,301.907,159.033z"/>
				<path style="opacity:0.13;fill:#2D3B72;" d="M301.907,159.033c-10.404,2.418-20.633,0.93-22.865,2.79
					c-2.155,1.805-3.096,19.277-2.473,27.296c0.033,0.47-0.252,0.897-0.7,1.039c-1.368,0.449-4.431,1.247-7.68,0.777
					c-0.405-0.066-0.722-0.372-0.82-0.777c-0.153-0.667-0.416-1.827-0.722-3.337c1.696-0.011,3.862-0.197,3.982-1.827
					c0.033-0.47-0.153-0.908-0.317-1.346c-1.74-4.65-1.444-9.781-1.116-14.726c0.35-5.492,1.018-11.63,5.251-15.142
					c3.742-3.118,9.245-3.238,13.15-6.137c-1.98-0.952-4.54-1.761-6.674-3.009c8.063-1.499,16.17-1.51,17.384-1.269
					c2.418,0.492,13.446,1.608,13.446,1.608S312.312,156.626,301.907,159.033z"/>
			</g>
			<g>
				<path style="fill:#75B0FE;" d="M323.274,159.033c-10.404,2.418-20.634,0.93-22.854,2.79c-2.166,1.805-3.107,19.277-2.483,27.296
					c0.033,0.47-0.252,0.897-0.7,1.039c-1.368,0.449-4.42,1.247-7.669,0.777c-0.416-0.066-0.733-0.372-0.82-0.777
					c-0.131-0.58-0.339-1.532-0.602-2.757c-1.499-7.177-4.606-23.883-2.921-32.635c0.908-4.726,4.19-7.133,7.877-8.304
					c5.153-1.63,11.104-0.831,12.516-0.547c2.418,0.481,27.504-0.941,27.504-0.941S333.678,156.626,323.274,159.033z"/>
				<path style="opacity:0.13;fill:#2D3B72;" d="M323.274,159.033c-10.404,2.418-20.634,0.93-22.854,2.79
					c-2.166,1.805-3.107,19.277-2.483,27.296c0.033,0.47-0.252,0.897-0.7,1.039c-1.368,0.449-4.42,1.247-7.669,0.777
					c-0.416-0.066-0.733-0.372-0.82-0.777c-0.131-0.58-0.339-1.532-0.602-2.757c1.422-0.656,2.943-1.16,4.475-1.477
					c-0.525-4.672-1.039-9.332-1.564-13.993c-0.339-3.031-0.667-6.105-0.23-9.113c0.438-3.02,1.74-6.028,4.146-7.899
					c3.643-2.834,8.993-2.56,12.713-5.306c0.295-0.219,0.591-0.492,0.635-0.853c0.077-0.722-0.82-1.083-1.532-1.203
					c-4.551-0.777-9.19-0.503-13.686-1.094c5.153-1.63,11.104-0.831,12.516-0.547c2.418,0.481,27.504-0.941,27.504-0.941
					S333.678,156.626,323.274,159.033z"/>
			</g>
		</g>
		<g>
			<path style="fill:#C8BBB3;" d="M277.127,208.527c-0.908,0.405-2.56,0.996-5.087,1.532c-1.072,0.241-2.298,0.46-3.687,0.646
				c-4.868,0.656-8.523,0.153-10.251-0.197c-0.733-0.153-1.236-0.82-1.203-1.575c0.033-0.591,0.12-1.105,0.12-1.105
				c5.831,1.411,11.433,0.678,15.306-0.284c3.238-0.799,5.284-1.761,5.284-1.761c0.022,0.033,0.044,0.066,0.055,0.098
				c0.186,0.328,0.306,0.635,0.361,0.897C278.2,207.499,277.817,208.243,277.127,208.527z"/>
			<path style="fill:#573558;" d="M277.839,205.497c-0.033,0.131-0.087,0.252-0.175,0.383c-0.667,1.007-2.965,1.783-5.536,2.352
				c-1.871,0.416-3.895,0.711-5.536,0.897c-4.179,0.46-9.102-0.372-9.573-1.302c-0.459-0.93-0.558-4.19,3.807-4.19
				c3.512,0,5.394-1.553,6.291-3.271c0.219-0.427,0.383-0.853,0.492-1.28c0.427-1.63,0.372-4.387,0.317-5.612
				c-0.022-0.383-0.033-0.613-0.033-0.613l3.424-0.328l2.582-0.241l2.724-0.262c0,0-0.022,0.252-0.055,0.667
				c-0.087,1.379-0.208,4.518,0.427,6.302C277.839,201.317,278.298,203.549,277.839,205.497z"/>
			<path style="fill:#ACCE77;" d="M277.598,190.716c0.011,0.241,0.011,0.481,0,0.7c-0.033,0.613-0.448,1.116-1.028,1.28
				c-0.044,0.011-0.087,0.022-0.131,0.033c-0.7,0.131-1.575,0.241-2.505,0.328c-0.842,0.088-1.729,0.164-2.593,0.219
				c-1.335,0.098-2.582,0.153-3.413,0.197h-0.055c-0.678,0.033-1.302-0.438-1.433-1.105c-0.055-0.262-0.066-0.503-0.066-0.722
				c0-0.656,0.438-1.225,1.072-1.378c0.897-0.23,2.232-0.394,3.621-0.514c0.525-0.055,1.05-0.087,1.576-0.12
				c1.368-0.099,2.659-0.142,3.512-0.175C276.887,189.425,277.543,189.983,277.598,190.716z"/>
			<path style="fill:#ACCE77;" d="M268.078,201.597c-0.943,0.094-1.115-1.022-1.022-4.182c0.093-3.16-2.23-7.341-0.929-7.713
				c1.301-0.372,4.646-1.301,4.925,0c0.279,1.301,0.558,6.969,0,9.385C270.494,201.504,269.007,201.504,268.078,201.597z"/>
			<path style="opacity:0.26;fill:#17094C;" d="M277.127,208.527c-0.908,0.405-2.56,0.996-5.087,1.532
				c-0.055-0.624-0.044-1.236,0.087-1.827c0.044-0.23,0.109-0.46,0.197-0.689c0.022-0.088,0.055-0.186,0.098-0.273
				c0.372-0.842,0.996-1.564,1.247-2.44c0.295-1.072,0-2.199-0.197-3.293c-0.536-2.965,0.525-5.656,0.46-8.479
				c0-0.219,0-0.438-0.022-0.667c0-0.033-0.011-0.066-0.011-0.098c-0.12-1.105-0.733-1.871-1.258-2.658
				c1.368-0.099,2.659-0.142,3.512-0.175c0.733-0.033,1.389,0.525,1.444,1.258c0.011,0.241,0.011,0.481,0,0.7
				c-0.033,0.613-0.448,1.116-1.028,1.28c-0.087,1.379-0.208,4.518,0.427,6.302c0.842,2.319,1.302,4.551,0.842,6.499
				c-0.033,0.131-0.087,0.252-0.175,0.383c0.186,0.328,0.306,0.635,0.361,0.897C278.2,207.499,277.817,208.243,277.127,208.527z"/>
		</g>
		<g>
			<path style="fill:#C8BBB3;" d="M299.708,207.838c-0.908,0.47-2.571,1.203-5.175,1.936c-0.996,0.284-2.144,0.569-3.435,0.842
				c-4.814,0.996-8.501,0.744-10.24,0.503c-0.733-0.099-1.28-0.733-1.302-1.477c-0.022-0.602,0.033-1.116,0.033-1.116
				c5.962,1.018,11.531-0.131,15.339-1.367c3.129-1.018,5.065-2.101,5.065-2.101c0.022,0.033,0.044,0.066,0.055,0.098
				c0.219,0.317,0.35,0.613,0.438,0.875C300.704,206.744,300.365,207.499,299.708,207.838z"/>
			<path style="fill:#573558;" d="M300.201,204.764c-0.022,0.131-0.077,0.263-0.153,0.394c-0.602,1.039-2.79,1.969-5.284,2.702
				c-1.86,0.558-3.884,1.007-5.536,1.302c-4.135,0.755-9.102,0.263-9.638-0.635c-0.525-0.897-0.842-4.135,3.512-4.442
				c3.501-0.241,5.273-1.915,6.05-3.687c0.197-0.438,0.328-0.886,0.405-1.324c0.306-1.652,0.055-4.42-0.087-5.623
				c-0.033-0.372-0.066-0.602-0.066-0.602l3.392-0.569l2.921-0.481l2.341-0.394c0,0-0.011,0.262-0.011,0.678
				c0,1.378,0.099,4.529,0.864,6.247C299.905,200.595,300.529,202.783,300.201,204.764z"/>
			<path style="fill:#ACCE77;" d="M298.986,190.738c0.011,0.613-0.372,1.149-0.941,1.346c-0.044,0.022-0.087,0.033-0.131,0.044
				c-0.624,0.164-1.4,0.317-2.221,0.46c-0.908,0.164-1.893,0.306-2.823,0.438c-1.324,0.186-2.571,0.328-3.402,0.427
				c-0.011,0.011-0.033,0.011-0.044,0.011c-0.678,0.077-1.335-0.35-1.51-1.007c-0.066-0.252-0.099-0.503-0.11-0.722
				c-0.055-0.646,0.35-1.247,0.974-1.444c0.875-0.284,2.188-0.547,3.566-0.766c1.061-0.164,2.155-0.317,3.118-0.427
				c0.755-0.088,1.422-0.164,1.936-0.219c0.744-0.077,1.433,0.427,1.532,1.16C298.964,190.278,298.986,190.508,298.986,190.738z"/>
			<path style="fill:#ACCE77;" d="M290.194,201.549c-0.934,0.159-1.183-0.943-1.309-4.101c-0.126-3.158-2.733-7.169-1.461-7.63
				c1.272-0.461,4.545-1.62,4.913-0.341c0.368,1.279,1.039,6.914,0.65,9.363C292.598,201.289,291.115,201.392,290.194,201.549z"/>
			<path style="opacity:0.26;fill:#17094C;" d="M299.708,207.838c-0.908,0.47-2.571,1.203-5.175,1.936
				c0.066-0.646,0.109-1.291,0.23-1.915c0.033-0.241,0.088-0.47,0.164-0.7c0.011-0.044,0.033-0.088,0.044-0.131
				c0.295-0.853,0.832-1.619,1.16-2.473c0.952-2.494-0.055-5-0.438-7.494c-0.241-1.532-0.088-3.009,0-4.475
				c0.011-0.263,0.022-0.525,0.022-0.788c0.022-0.667,0-1.335-0.087-2.002c-0.033-0.241-0.099-0.471-0.164-0.7
				c0.755-0.088,1.422-0.164,1.936-0.219c0.744-0.077,1.433,0.427,1.532,1.16c0.033,0.241,0.055,0.47,0.055,0.7
				c0.011,0.613-0.372,1.149-0.941,1.346c0,1.378,0.099,4.529,0.864,6.247c0.995,2.265,1.619,4.453,1.291,6.433
				c-0.022,0.131-0.077,0.263-0.153,0.394c0.219,0.317,0.35,0.613,0.438,0.875C300.704,206.744,300.365,207.499,299.708,207.838z"/>
		</g>
		<g>
			<g>
				<g>
					<path style="fill:#00AD9C;" d="M333.12,144.974c-0.405,0.82-11.411,1.039-21.454,0.897c-8.129-0.109-15.612-0.449-16.334-0.897
						c-1.608-0.995-0.372-33.828,5.58-42.864c0.23-0.35,1.4-0.799,3.206-1.203c4.967-1.138,14.715-1.947,22.439,0.645
						c0,0,3.096,2.035,4.956,17.155C333.372,133.826,333.864,143.486,333.12,144.974z"/>
					<path style="opacity:0.13;fill:#2D3B72;" d="M333.12,144.974c-0.405,0.82-11.411,1.039-21.454,0.897
						c1.05-0.361,2.079-0.755,2.998-1.379c4.223-2.866,4.354-8.927,4.037-14.015c-0.263-4.289-0.525-8.577-0.788-12.866
						c-0.12-1.936-0.273-3.96-1.346-5.579c-1.181-1.794-3.282-2.735-5.306-3.479c-2.024-0.733-4.157-1.422-5.689-2.921
						c-1.663-1.63-1.958-3.271-1.455-4.726c4.967-1.138,14.715-1.947,22.439,0.645c0,0,3.096,2.035,4.956,17.155
						C333.372,133.826,333.864,143.486,333.12,144.974z"/>
				</g>
				<path style="fill:#FFFFFF;" d="M313.121,97.769c8.294-0.719,8.977,6.226,1.512,7.434
					C305.447,106.689,303.121,98.636,313.121,97.769z"/>
			</g>
			<path style="fill:#00AD9C;" d="M300.911,102.105c0,0-7,3.82-9.045,17.459c-2.044,13.64-1.923,22.845-0.929,24.791
				c0.994,1.945,5.645,0.879,5.645,0.879S293.787,121.558,300.911,102.105z"/>
			<g>
				<g>
					<path style="fill:#8C4C89;" d="M279.845,148.444c0,0,1.118,1.363,2.605,1.115c1.487-0.248,1.982-1.487,1.982-1.487
						l-0.991-25.922c0,0-0.62,0.426-2.106,0.722c-1.487,0.296-2.478-0.722-2.478-0.722L279.845,148.444z"/>
				</g>
				<path style="fill:#F5F0C8;" d="M262.998,117.221l3.097-1.611c0,0,13.753,1.982,14.62,6.938L262.998,117.221z"/>
				<path style="fill:#F5F0C8;" d="M280.839,122.15c0,0-1.543-2.451,17.786-8.15c0,0,1.926,0.351,3.401,1.611L280.839,122.15z"/>
				<polygon style="fill:#773577;" points="283.441,122.15 304.752,115.61 303.312,143.612 284.432,148.072 				"/>
				<polygon style="fill:#773577;" points="278.857,122.15 261.511,117.221 264.485,143.367 279.845,148.444 				"/>
				<path style="fill:#FF76DC;" d="M261.511,117.221l1.487-0.496l15.859,4.708c0,0,0.743,0.813,1.982,0.716
					c1.239-0.097,2.602-0.964,2.602-0.964l19.87-6.071l1.441,0.496l-20.815,6.388c0,0-0.991,1.046-2.602,1.294
					s-2.726-0.42-2.726-0.42L261.511,117.221z"/>
			</g>
			<g>
				<g>
					<g>
						<path style="fill:#FFA67A;" d="M269.841,133.542c-0.12,0.066-0.252,0.131-0.405,0.186c-0.569,0.208-1.313,0.35-2.101,0.427
							c-1.444,0.131-2.998,0.011-3.807-0.525c-0.011-0.011-0.011,0-0.011,0c-0.044-0.033-0.077-0.066-0.109-0.087
							c-0.219-0.175-0.361-0.383-0.416-0.635c-0.12-0.569-0.077-0.941,0.219-1.16c0.241-0.208,0.656-0.306,1.302-0.361
							c0.744-0.066,1.652-0.153,2.527-0.23c0.788-0.066,1.554-0.12,2.166-0.12C270.388,131.036,271.285,132.732,269.841,133.542z"/>
						<path style="fill:#FFA67A;" d="M270.126,136.277c-0.098,0.033-0.208,0.055-0.317,0.077c-0.667,0.109-1.379,0.23-2.09,0.339
							c-1.521,0.219-3.02,0.361-3.96,0.142c-0.088-0.022-0.175-0.044-0.252-0.077c-0.47-0.153-0.744-0.438-0.744-0.886
							c0-0.941-0.131-1.849,0.656-2.21c0.022-0.011,0.066-0.033,0.098-0.033c0,0,0-0.011,0.011,0
							c0.142-0.066,0.328-0.098,0.536-0.12c0.831-0.077,2.024-0.066,3.151-0.044c0.897,0.022,1.75,0.044,2.352,0.044
							c0.087,0,0.186,0.011,0.273,0.033C270.99,133.815,271.778,135.784,270.126,136.277z"/>
						<path style="fill:#FFA67A;" d="M269.808,139.012c-0.055,0.022-0.109,0.033-0.164,0.055c-0.832,0.263-1.991,0.492-3.118,0.547
							c-0.853,0.055-1.685,0-2.319-0.186c-0.055-0.022-0.109-0.033-0.164-0.066c-0.634-0.219-1.05-0.613-1.05-1.214
							c0-0.755,0.055-1.16,0.514-1.389c0.066-0.033,0.153-0.066,0.241-0.087c0.219-0.066,0.503-0.109,0.864-0.142
							c0.897-0.076,2.024-0.197,3.074-0.273c0.689-0.055,1.346-0.098,1.882-0.098c0.197,0,0.383,0.044,0.558,0.12
							C271.154,136.747,271.613,138.377,269.808,139.012z"/>
						<path style="fill:#FFA67A;" d="M269.502,141.539c-1.39,0.492-3.884,0.657-5.219,0.088c0,0-0.044-0.022-0.131-0.066
							c-0.077-0.044-0.175-0.098-0.306-0.197c-0.044-0.033-0.087-0.066-0.142-0.12c-0.011,0-0.033-0.011-0.044-0.044
							c-0.109-0.12-0.197-0.274-0.23-0.438c-0.153-0.711-0.033-1.083,0.536-1.269c0.022-0.011,0.044-0.022,0.077-0.033
							c0.055-0.011,0.098-0.033,0.164-0.033c0.175-0.044,0.405-0.077,0.656-0.098c0.7-0.055,1.554-0.142,2.374-0.219
							c0.744-0.055,1.466-0.109,2.046-0.109c0.12,0,0.252,0.022,0.361,0.066C270.651,139.373,271.187,140.937,269.502,141.539z"/>
						<path style="fill:#FFA67A;" d="M264.283,141.626c0,0-0.044-0.022-0.131-0.066c-0.077-0.044-0.175-0.098-0.306-0.197
							c-0.044-0.033-0.087-0.066-0.142-0.12c-0.011,0-0.033-0.011-0.044-0.044c-0.492-0.405-1.182-1.192-1.696-2.604
							c-0.35-0.974-0.624-2.254-0.7-3.906c-0.252-5.82,1.51-6.936,1.51-6.936l0.438,3.993l0.197,1.794l0.011,0.12l0.328,3.009
							l0.011,0.164l0.284,2.527v0.098l0.011,0.055L264.283,141.626z"/>
					</g>
				</g>
				<path style="opacity:0.14;fill:#702500;" d="M269.808,139.012c-0.055,0.022-0.109,0.033-0.164,0.055
					c1.007,0.306,1.543,1.871-0.142,2.472c-1.39,0.492-3.884,0.657-5.219,0.088c0,0-0.044-0.022-0.131-0.066
					c-0.077-0.044-0.175-0.098-0.306-0.197c-0.044-0.033-0.087-0.066-0.142-0.12c-0.011,0-0.033-0.011-0.044-0.044
					c-0.492-0.405-1.182-1.192-1.696-2.604c0.613,0.328,1.291,0.667,2.002,0.897c0.022,0.011,0.055,0.022,0.087,0.022
					c0.328,0.109,0.667,0.186,1.007,0.23c0.481,0.066,1.017,0.055,1.466-0.131c0.186-0.055,0.35-0.142,0.503-0.273
					c0.077-0.066,0.153-0.142,0.208-0.23c0.295-0.383,0.427-0.908,0.47-1.389c0.033-0.35,0.033-0.689,0.011-1.028
					c0-0.153-0.011-0.295-0.033-0.438c-0.066-0.7-0.208-1.4-0.35-2.101c-0.044-0.23-0.087-0.459-0.12-0.689
					c-0.044-0.186-0.077-0.372-0.098-0.558c-0.077-0.569-0.12-1.171-0.077-1.751c0.788-0.066,1.554-0.12,2.166-0.12
					c1.181,0,2.079,1.696,0.634,2.505c1.149,0.273,1.936,2.243,0.284,2.735C271.154,136.747,271.613,138.377,269.808,139.012z"/>
			</g>
			<g>
				<g>
					<g>
						<g>
							<path style="fill:#FFA67A;" d="M311.688,142.25c-4.322,0.985-8.03,1.105-9.376,1.116h-0.055c-0.306,0-0.481,0-0.481,0
								c0-0.011,0-0.011,0-0.022c-0.109-0.35-0.186-1.072-0.23-1.98c-0.011-0.088-0.011-0.175-0.011-0.274
								c0-0.011-0.011-0.011,0-0.022c-0.033-0.678-0.055-1.444-0.055-2.232c-0.011-0.088-0.011-0.186-0.011-0.285
								c0-0.897,0-1.816,0.011-2.648v-0.055c0.011-1.433,0.044-2.571,0.055-2.855c0-0.044,0-0.066,0-0.066l2.287-0.339l0.306-4.092
								c3.348,0.492,3.107,3.72,3.72,4.212c0.35,0.273,1.597,0.241,2.626,0.164c0.799-0.066,1.466-0.164,1.466-0.164
								C310.824,135.555,311.688,142.25,311.688,142.25z"/>
							<path style="fill:#FFA67A;" d="M302.026,133.009c-2.506,0.025-5.639-1.238-6.152,0.161c-0.513,1.399,0.797,2.649,6.152,2.761
								V133.009z"/>
							<path style="fill:#FFA67A;" d="M301.531,135.853c-2.726,0.027-5.637-1.521-6.195,0c-0.558,1.521,0.867,2.881,6.691,3.003
								L301.531,135.853z"/>
							<path style="fill:#FFA67A;" d="M301.98,138.574c-2.329,0.024-5.689-1.331-6.165-0.031c-0.477,1.3,1.236,2.461,6.212,2.565
								L301.98,138.574z"/>
							<path style="fill:#FFA67A;" d="M302.312,141.112v2.254h-0.055c-0.164,0-0.328-0.011-0.481-0.022
								c-2.155-0.077-3.61-0.416-4.409-0.875c-0.645-0.372-0.875-0.821-0.7-1.291c0.153-0.405,0.678-0.525,1.389-0.492
								c0,0,0.011-0.011,0.022,0c0.996,0.011,2.319,0.284,3.457,0.383c0.175,0.022,0.339,0.033,0.492,0.033
								C302.126,141.112,302.225,141.112,302.312,141.112z"/>
						</g>
					</g>
					<path style="opacity:0.14;fill:#702500;" d="M311.688,142.25c-4.322,0.985-8.03,1.105-9.376,1.116h-0.055
						c-0.306,0-0.481,0-0.481,0c0-0.011,0-0.011,0-0.022c-2.155-0.077-3.61-0.416-4.409-0.875c1.302-0.481,2.812-0.821,4.179-1.105
						c0.263-0.066,0.525-0.12,0.766-0.164c0.821-0.186,1.553-0.361,2.111-0.558c4.125-1.466,5.033-3.895,6.05-7.768
						c0.799-0.066,1.466-0.164,1.466-0.164C310.824,135.555,311.688,142.25,311.688,142.25z"/>
				</g>
				<g>
					<path style="fill:#00AD9C;" d="M335.232,137.414c-8.424,3.72-22.307,5.328-23.544,5.58c-0.405,0.077-0.667-1.083-0.799-2.68
						c-0.252-3.26,0.044-8.348,0.799-8.348c1.116,0,14.376-2.483,15.491-5.328c1.116-2.855-3.468-6.564-5.328-11.4
						c-1.794-4.65-2.779-10.448,1.346-12.964c0.164-0.109,0.339-0.208,0.514-0.295c7.494-3.742,13.993,8.927,16.597,16.356
						C342.912,125.774,343.656,133.695,335.232,137.414z"/>
					<path style="opacity:0.13;fill:#2D3B72;" d="M335.232,137.414c-8.424,3.72-22.307,5.328-23.544,5.58
						c-0.405,0.077-0.667-1.083-0.799-2.68c2.746-0.864,5.689-1.335,8.534-1.871c4.967-0.93,10.229-2.385,13.435-6.28
						c3.096-3.753,3.599-9.146,2.308-13.84c-1.302-4.683-4.168-8.763-7.286-12.494c-1.28-1.532-2.746-3.107-4.682-3.556
						c0.164-0.109,0.339-0.208,0.514-0.295c7.494-3.742,13.993,8.927,16.597,16.356
						C342.912,125.774,343.656,133.695,335.232,137.414z"/>
				</g>
			</g>
		</g>
		<g>
			<g>
				<path style="fill:#5F3713;" d="M329.718,82.351c-1.389,2.341-4.146,2.013-4.146,2.013s2.418,4.048-2.593,6.794
					c-5,2.746-8.621,0-8.621,0s0-6.63,1.893-6.63c1.904,0,4.825-1.269,4.322-4.201c-0.514-2.921-3.457-2.254-5.011,0.164
					c-1.554,2.429-3.621,1.783-3.971-1.772c-0.339-3.556,2.943-16.312,2.943-16.312s-2.571,1.225-5.459,1.51
					c-2.024,0.208-4.201-0.044-5.766-1.51c0,0-2.757,3.227-7.932,1.936c0,0-0.46,4.737-6.794,3.501
					c-6.86-1.346-7.877-8.512-4.77-12.385c3.107-3.884,7.593-1.619,7.593-1.619s1.203-3.709,7.593-3.873
					c0.547-0.011,1.05-0.011,1.532,0.011c5.131,0.241,6.575,2.407,6.575,2.407s4.322-5.984,15.535-2.429
					c11.214,3.567,5.175,17.45,5.175,17.45s3.621,1.619,3.457,5.82c-0.175,4.201-3.107,4.847-3.107,4.847
					S331.096,80.01,329.718,82.351z"/>
				<path style="opacity:0.46;fill:#3A1700;" d="M329.718,82.351c-1.389,2.341-4.146,2.013-4.146,2.013s2.418,4.048-2.593,6.794
					c-5,2.746-8.621,0-8.621,0s0-6.63,1.893-6.63c1.904,0,4.825-1.269,4.322-4.201c-0.514-2.921-3.457-2.254-5.011,0.164
					c-1.554,2.429-3.621,1.783-3.971-1.772c-0.339-3.556,2.943-16.312,2.943-16.312s-2.571,1.225-5.459,1.51
					c0.361-0.788,0.799-1.532,1.357-2.221c0.547-0.689,1.203-1.335,1.488-2.166c0.7-2.013-1.225-4.168-3.326-4.551
					c-2.101-0.372-4.212,0.47-6.181,1.291c1.893-2.746,0.383-5.055-1.882-6.291c5.131,0.241,6.575,2.407,6.575,2.407
					s4.322-5.984,15.535-2.429c11.214,3.567,5.175,17.45,5.175,17.45s3.621,1.619,3.457,5.82c-0.175,4.201-3.107,4.847-3.107,4.847
					S331.096,80.01,329.718,82.351z"/>
			</g>
			<g>
				<path style="fill:#FFA67A;" d="M316.655,86.126c-1.149,0.613-0.919,15.546-0.919,15.546c-3.457,2.801-5.525,0-5.525,0
					s0-7.341-1.608-7.56c-1.105-0.142-7.801,2.057-13.282,0.547c-2.473-0.678-4.693-2.112-6.05-4.857
					c-0.12-0.241-0.23-0.481-0.339-0.733c-0.481-1.083-0.842-2.243-1.105-3.403c-1.247-5.372-0.558-11.28,0.077-14.759
					c0.35-1.893,0.678-3.063,0.678-3.063c5.525,1.072,6.674-4.956,6.674-4.956c4.376,2.582,7.823-1.729,7.823-1.729
					c4.606,3.884,12.888-0.853,12.888-0.853s-2.768,10.328-3.227,15.929c-0.46,5.602,1.16,5.602,2.079,3.884
					c0.919-1.729,5.525-5.383,6.674-0.438C322.639,84.638,317.804,85.502,316.655,86.126z"/>
				<path style="opacity:0.14;fill:#702500;" d="M316.655,86.126c-1.149,0.613-0.919,15.546-0.919,15.546
					c-3.457,2.801-5.525,0-5.525,0s0-7.341-1.608-7.56c-1.105-0.142-7.801,2.057-13.282,0.547c1.565-0.361,3.206-0.558,4.628-1.291
					c2.494-1.28,3.96-4.048,4.387-6.827c0.427-2.779-0.033-5.612-0.492-8.38c-0.361-2.166-0.711-4.332-1.072-6.499
					c-0.23-1.378-0.525-2.877-1.619-3.742c-1.269-1.007-3.14-0.755-4.584-0.055c-1.455,0.711-2.713,1.783-4.201,2.407
					c-1.86,0.777-3.337,0.919-4.464,0.634c0.35-1.893,0.678-3.063,0.678-3.063c5.525,1.072,6.674-4.956,6.674-4.956
					c4.376,2.582,7.823-1.729,7.823-1.729c4.606,3.884,12.888-0.853,12.888-0.853s-2.768,10.328-3.227,15.929
					c-0.46,5.602,1.16,5.602,2.079,3.884c0.919-1.729,5.525-5.383,6.674-0.438C322.639,84.638,317.804,85.502,316.655,86.126z"/>
			</g>
			<g>
				<g>
					<path style="fill:#562500;" d="M291.154,81.893c0,0.981-0.498,1.777-1.113,1.777s-1.113-0.796-1.113-1.777
						c0-0.981,0.498-1.777,1.113-1.777S291.154,80.912,291.154,81.893z"/>
					<path style="fill:#562500;" d="M304.805,81.516c0,0.981-0.498,1.777-1.113,1.777s-1.113-0.796-1.113-1.777
						c0-0.981,0.498-1.777,1.113-1.777S304.805,80.535,304.805,81.516z"/>
				</g>
				
					<path style="fill:none;stroke:#A8451A;stroke-width:0.6678;stroke-linecap:round;stroke-linejoin:round;stroke-miterlimit:10;" d="
					M293.3,83.293c0,0,0.115,1.669,2.991,1.669s3.106-2.154,3.106-2.154"/>
				<g>
					<path style="fill:#F96BA5;" d="M307.222,84.962c4.372-0.323,4.947,3.553,0.23,4.092
						C302.735,89.592,302.85,85.285,307.222,84.962z"/>
					<path style="fill:#F96BA5;" d="M289.004,89.061c-0.022,0-0.045,0.007-0.067,0.007c-0.483-1.085-0.848-2.238-1.108-3.405
						c0.29-0.082,0.617-0.134,0.974-0.163C292.617,85.217,293.115,88.592,289.004,89.061z"/>
				</g>
				<g>
					<path style="fill:#5F3713;" d="M288.353,76.563c2.088-0.205,2.611,0.215,2.801-0.861c0.19-1.077-1.42-1.507-3.376-1.077
						c-1.956,0.431-2.531,1.185-2.071,1.938C286.167,77.316,287.197,76.676,288.353,76.563z"/>
					<path style="fill:#5F3713;" d="M303.252,76.563c-2.088-0.205-2.611,0.215-2.801-0.861c-0.19-1.077,1.42-1.507,3.376-1.077
						c1.956,0.431,2.531,1.185,2.071,1.938C305.438,77.316,304.407,76.676,303.252,76.563z"/>
				</g>
			</g>
		</g>
	</g>
	<g>
		<g style="opacity:0.61;">
			<g>
				<path style="fill:#ACCE77;" d="M202.826,141.827c-2.404,0-4.359-1.956-4.359-4.359c0-2.404,1.956-4.359,4.359-4.359
					c2.404,0,4.359,1.955,4.359,4.359C207.185,139.871,205.23,141.827,202.826,141.827z M202.826,134.944
					c-1.392,0-2.524,1.132-2.524,2.524c0,1.391,1.132,2.524,2.524,2.524c1.392,0,2.524-1.132,2.524-2.524
					C205.35,136.076,204.218,134.944,202.826,134.944z"/>
			</g>
			<g>
				<path style="fill:#ACCE77;" d="M445.825,265.185c-2.038,0-3.695-1.658-3.695-3.695c0-2.037,1.658-3.695,3.695-3.695
					c2.037,0,3.695,1.658,3.695,3.695C449.52,263.527,447.862,265.185,445.825,265.185z M445.825,259.351
					c-1.18,0-2.139,0.96-2.139,2.139s0.96,2.139,2.139,2.139s2.139-0.96,2.139-2.139S447.004,259.351,445.825,259.351z"/>
			</g>
			<g>
				<path style="fill:#ACCE77;" d="M50.866,342.97c-3.135,0-5.685-2.55-5.685-5.685c0-3.135,2.55-5.685,5.685-5.685
					c3.135,0,5.685,2.55,5.685,5.685C56.551,340.42,54,342.97,50.866,342.97z M50.866,333.994c-1.815,0-3.291,1.477-3.291,3.291
					c0,1.815,1.477,3.291,3.291,3.291c1.815,0,3.291-1.477,3.291-3.291C54.157,335.47,52.681,333.994,50.866,333.994z"/>
			</g>
			<g>
				<path style="fill:#ACCE77;" d="M83.454,196.112c-3.306,0-5.996-2.69-5.996-5.997c0-3.307,2.69-5.996,5.996-5.996
					c3.306,0,5.996,2.689,5.996,5.996C89.45,193.422,86.761,196.112,83.454,196.112z M83.454,186.569
					c-1.956,0-3.547,1.591-3.547,3.547c0,1.956,1.591,3.547,3.547,3.547c1.956,0,3.547-1.591,3.547-3.547
					C87.001,188.16,85.41,186.569,83.454,186.569z"/>
			</g>
		</g>
		<g style="opacity:0.51;">
			<circle style="fill:#FF76DC;" cx="467.113" cy="359.939" r="3.09"/>
			<circle style="fill:#FF76DC;" cx="380.299" cy="170.648" r="4.181"/>
			<path style="fill:#FF76DC;" d="M68.047,211.76c0,1.603-1.299,2.902-2.902,2.902c-1.603,0-2.903-1.299-2.903-2.902
				c0-1.603,1.3-2.903,2.903-2.903C66.747,208.857,68.047,210.157,68.047,211.76z"/>
		</g>
		<g style="opacity:0.5;">
			<polygon style="fill:#17CEBC;" points="235.417,126.794 230.285,126.194 226.881,130.083 225.865,125.016 221.115,122.981 
				225.62,120.449 226.088,115.302 229.888,118.804 234.927,117.659 232.771,122.355 			"/>
			<polygon style="fill:#17CEBC;" points="93.596,229.449 89.245,223.083 81.533,223.058 86.244,216.952 83.884,209.61 
				91.147,212.203 97.4,207.691 97.178,215.399 103.402,219.952 96.003,222.123 			"/>
			<polygon style="fill:#17CEBC;" points="368.914,195.71 366.385,192.423 362.244,192.643 364.588,189.223 363.099,185.352 
				367.077,186.525 370.297,183.913 370.412,188.058 373.891,190.314 369.984,191.703 			"/>
			<polygon style="fill:#17CEBC;" points="467.663,343.539 464.142,342.936 461.651,345.495 461.136,341.961 457.932,340.382 
				461.134,338.8 461.646,335.265 464.14,337.822 467.66,337.216 465.999,340.378 			"/>
		</g>
	</g>
	<g>
		<g>
			<path style="fill:#01A89E;" d="M172.13,406.02H50.42c-4.86,0-7.71,0-7.71,0c-7.84,0-13.61-13.38-6-21.22
				c7.47-7.69,16.49-1.85,16.84-1.62c-0.13-0.37-9.08-25.31,11.31-36.84c3.42-1.93,6.75-2.93,9.92-3.17
				c15.85-1.26,27.49,16.21,24.22,28.71c0,0,10.61-8.3,20.07-1.61c9.46,6.68,6,19.38,6,19.38s6.23-7.62,18.68-6.23
				c12.46,1.38,15.92,11.53,15.92,11.53s3.93-5.07,12-2.53C179.74,394.95,180.43,406.02,172.13,406.02z"/>
			<g>
				<path style="fill:#ACCE77;" d="M78.144,406.022c-1.543-8.831-4.734-30.189-3.135-48.674c0,0,1.391,32.119,6.782,48.674H78.144z"
					/>
				<path style="fill:#ACCE77;" d="M60.524,406.022h-5.571c-8.256-5.945-12.762-15.759-12.928-16.132
					C48.932,399.378,56.102,403.931,60.524,406.022z"/>
				<path style="fill:#ACCE77;" d="M112.375,378.352c-0.215,0.457-6.893,14.361-20.569,27.669h-2.914
					C93.619,401.786,105.17,390.768,112.375,378.352z"/>
				<path style="fill:#ACCE77;" d="M142.12,391.059c-0.311,0.554-4.9,8.381-13.053,14.963h-2.872
					C130.32,403.018,137.781,397.149,142.12,391.059z"/>
				<path style="fill:#ACCE77;" d="M168.094,397.011c-0.505,0.997-2.775,5.315-5.917,9.011h-2.72
					C162.544,403.302,166.897,399.253,168.094,397.011z"/>
			</g>
		</g>
		<path style="opacity:0.13;fill:#2D3B72;" d="M61.07,366.25c-0.42,7.46,1.37,14.89,3.85,21.94c-3.23,2.23-7.62-0.83-11.5-0.21
			c-3.69,0.59-5.92,4.46-6.08,8.27c-0.04,0.56-0.02,1.12,0.05,1.67c0.03,0.26,0.07,0.51,0.12,0.77c0.46,2.59,1.62,4.99,2.91,7.33
			c-4.86,0-7.71,0-7.71,0c-7.84,0-13.61-13.38-6-21.22c7.47-7.69,16.49-1.85,16.84-1.62c-0.13-0.37-9.08-25.31,11.31-36.84
			c3.42-1.93,6.75-2.93,9.92-3.17C66.11,347.31,61.6,356.9,61.07,366.25z"/>
		<path style="opacity:0.28;fill:#D1FF80;" d="M84.236,351.072c-1.924,0.323-3.597,2.388-2.91,4.214
			c0.441,1.173,1.625,1.858,2.528,2.726c2.039,1.961,2.674,4.917,3.894,7.468c0.455,0.951,1.016,1.878,1.832,2.546
			c0.815,0.668,1.923,1.046,2.945,0.787c1.248-0.317,2.121-1.525,2.377-2.787c0.257-1.262,0.002-2.571-0.343-3.811
			C93.325,357.784,90.215,350.066,84.236,351.072z"/>
		<path style="opacity:0.28;fill:#D1FF80;" d="M109.812,374.343c0.211,0.25,0.51,0.407,0.803,0.554
			c2.279,1.143,4.848,2.271,5.928,4.58c0.576,1.232,0.717,2.777,1.805,3.594c0.943,0.708,2.37,0.553,3.272-0.207
			c0.902-0.761,1.303-2.007,1.223-3.184c-0.197-2.884-3.526-6.787-6.106-8.105C115.06,370.718,107.306,371.368,109.812,374.343z"/>
		<path style="opacity:0.28;fill:#D1FF80;" d="M145.55,387.387c-0.63,0.039-1.278,0.163-1.796,0.524
			c-0.518,0.361-0.877,1.005-0.752,1.624c2.906,0.449,5.666,1.806,7.796,3.833c0.592,0.563,1.16,1.193,1.917,1.499
			c0.757,0.307,1.779,0.161,2.165-0.559C156.643,391.019,147.601,387.26,145.55,387.387z"/>
		<path style="opacity:0.28;fill:#D1FF80;" d="M168.738,393.611c-0.917-0.096-2.041,0.04-2.436,0.873
			c-0.196,0.415-0.15,0.899-0.1,1.356c1.012,0.263,2.039,0.533,2.94,1.064c0.901,0.531,1.676,1.365,1.893,2.388
			c0.126,0.596,0.078,1.276,0.471,1.741c0.365,0.433,0.985,0.525,1.547,0.589c0.3,0.034,0.611,0.067,0.898-0.03
			c0.68-0.229,0.931-1.065,0.941-1.783C174.937,396.349,171.963,393.95,168.738,393.611z"/>
	</g>
</g>
</svg>
