<?xml version="1.0" encoding="utf-8"?>
<!-- Generator: Adobe Illustrator 27.5.0, SVG Export Plug-In . SVG Version: 6.00 Build 0)  -->
<svg version="1.1" xmlns="http://www.w3.org/2000/svg" xmlns:xlink="http://www.w3.org/1999/xlink" x="0px" y="0px"
	 viewBox="0 0 499.999 500" style="enable-background:new 0 0 499.999 500;" xml:space="preserve">
<g id="BACKGROUND">
</g>
<g id="OBJECTS">
	<ellipse style="fill:#F1F1F1;" cx="250" cy="397.72" rx="213.5" ry="33.5"/>
	<g>
		<g>
			<g>
				<path style="fill:#5691B3;" d="M122.595,389.45c0,0,14.972,7.142,15.791,8.779c0,0,0.482,2.779,0.058,5.062
					c-0.141,0.76-0.902,1.336-1.772,1.287c-9.407-0.533-18.364-1.786-27.286-3.701c-1.026-0.22-1.838-0.913-1.858-1.844
					c-0.055-2.542,0.014-7.601,1.191-11.683L122.595,389.45z"/>
				<path style="fill:#5691B3;" d="M91.97,389.513c0,0,12.81,7.99,13.705,9.631c0,0,1.404,4.379,0.955,6.66
					c-0.149,0.759-0.972,1.333-1.916,1.28c-10.199-0.573-18.406-3.255-27.013-6.198c-1.074-0.367-1.996-0.921-2.022-1.852
					c-0.071-2.543-0.017-7.603,1.241-11.681L91.97,389.513z"/>
				<path style="fill:#82C2D6;" d="M117.282,223.081v-1.267l-32.273,0.797l-1.574,98.774l-7.084,69.301c0,0,9.446,2.39,18.104,0
					l14.955-82.046l3.149-59.742h3.917l-1.162,72.885l-7.084,69.301c0,0,9.446,2.39,18.104,0l14.956-82.046l1.574-81.249
					L117.282,223.081z"/>
			</g>
			<g>
				<path style="fill:#DE5B5E;" d="M96.458,169.615c-0.069,0.04-0.263,0.186-0.411,0.295l-0.486,0.365l-0.996,0.771
					c-0.671,0.52-1.333,1.074-1.996,1.625c-1.325,1.109-2.634,2.254-3.921,3.422c-2.59,2.323-5.017,4.807-7.349,7.333
					c-2.306,2.543-4.499,5.152-6.455,7.854c-1.932,2.707-3.666,5.476-5.049,8.277c-0.664,1.4-1.288,2.803-1.754,4.19
					c-0.116,0.346-0.249,0.695-0.355,1.039l-0.291,1.029c-0.046,0.168-0.107,0.351-0.143,0.507l-0.098,0.453l-0.105,0.453
					l-0.055,0.227l-0.028,0.113c-0.01-0.016-0.034,0.318,0.03-0.475l0.009-0.387L67,206.555l-0.02-0.249
					c-0.005-0.062-0.015-0.124-0.03-0.184c-0.02-0.081-0.008-0.026-0.028-0.042c0.031,0.111,0.02,0.222,0.109,0.464l0.093,0.327
					l0.158,0.398l0.153,0.404l0.212,0.446c0.249,0.583,0.624,1.236,0.971,1.867c0.399,0.645,0.799,1.299,1.237,1.956
					c1.773,2.645,3.963,5.292,6.346,7.831c2.347,2.561,4.156,5.799,6.808,8.185L72.88,238.259l-4.25-3.264
					c-1.391-1.408-2.811-2.761-4.186-4.228c-1.39-1.421-2.749-2.937-4.107-4.45l-1.994-2.38c-0.666-0.798-1.306-1.667-1.957-2.5
					c-0.641-0.866-1.267-1.774-1.889-2.692c-0.604-0.976-1.229-1.903-1.805-2.996l-0.436-0.795l-0.42-0.873l-0.412-0.88
					l-0.392-0.985c-0.259-0.625-0.5-1.421-0.72-2.207c-0.109-0.473-0.209-0.873-0.298-1.414c-0.077-0.642-0.181-0.92-0.158-2.363
					c0.061-0.91,0.066-0.69,0.075-0.821l0.033-0.231l0.066-0.462l0.138-0.924l0.144-0.924c0.052-0.302,0.116-0.569,0.174-0.855
					l0.365-1.691c0.132-0.557,0.291-1.095,0.438-1.644c0.592-2.192,1.352-4.263,2.166-6.288c3.34-8.039,7.876-14.947,12.762-21.389
					c2.463-3.207,5.064-6.265,7.73-9.26c1.338-1.494,2.703-2.963,4.107-4.411l2.138-2.166l1.104-1.088l0.575-0.552l0.659-0.612
					L96.458,169.615z"/>
				<path style="fill:#DE5B5E;" d="M147.795,154.076l0.659,0.615l0.575,0.555l1.104,1.094l2.139,2.177
					c1.404,1.455,2.769,2.932,4.107,4.433c2.666,3.01,5.267,6.083,7.73,9.306c4.886,6.474,9.422,13.416,12.762,21.495
					c0.814,2.036,1.574,4.117,2.166,6.32c0.147,0.551,0.305,1.093,0.438,1.652l0.365,1.7c0.058,0.288,0.122,0.557,0.174,0.859
					l0.145,0.929l0.138,0.929l0.067,0.464l0.033,0.232c0.009,0.132,0.014-0.09,0.075,0.825c0.022,1.451-0.081,1.73-0.158,2.375
					c-0.089,0.544-0.189,0.945-0.298,1.421c-0.22,0.79-0.461,1.59-0.72,2.218l-0.393,0.99l-0.412,0.884l-0.42,0.878l-0.436,0.799
					c-0.576,1.099-1.201,2.03-1.805,3.011c-0.622,0.923-1.248,1.835-1.889,2.706c-0.651,0.838-1.292,1.711-1.957,2.513l-1.994,2.391
					c-1.358,1.521-2.717,3.044-4.107,4.472c-1.375,1.474-2.794,2.834-4.186,4.249l-4.25,4.081l-10.924-11.954
					c2.652-2.398,5.257-4.851,7.604-7.425c2.383-2.551,4.573-5.212,6.346-7.87c0.438-0.66,0.839-1.318,1.237-1.966
					c0.346-0.634,0.722-1.29,0.97-1.876l0.212-0.448l0.153-0.406l0.158-0.4l0.093-0.329c0.089-0.243,0.077-0.355,0.109-0.466
					c-0.02,0.016-0.008-0.039-0.028,0.042c-0.016,0.061-0.026,0.123-0.03,0.185l-0.02,0.251l-0.004,0.151l0.009,0.389
					c0.063,0.797,0.04,0.461,0.03,0.477l-0.028-0.114l-0.055-0.228l-0.105-0.455l-0.098-0.455c-0.036-0.157-0.097-0.341-0.143-0.51
					l-0.291-1.034c-0.106-0.346-0.239-0.696-0.355-1.044c-0.466-1.394-1.09-2.804-1.754-4.21c-1.383-2.815-3.117-5.598-5.049-8.318
					c-1.956-2.715-4.149-5.337-6.455-7.893c-2.333-2.538-4.759-5.035-7.349-7.369c-1.287-1.173-2.596-2.324-3.921-3.439
					c-0.663-0.554-1.325-1.111-1.996-1.633l-0.997-0.775l-0.486-0.367c-0.148-0.11-0.342-0.256-0.411-0.296L147.795,154.076z"/>
				<g>
					<path style="fill:#DE5B5E;" d="M147.675,161.227c0,0.757,0,1.561-0.008,2.406c-0.024,2.931-0.072,6.42-0.167,10.331
						c-0.016,0.788-0.04,1.593-0.064,2.414c-0.088,3.218-0.215,6.683-0.374,10.331c-0.04,0.789-0.072,1.593-0.12,2.406
						c-0.159,3.322-0.351,6.787-0.589,10.331c-0.056,0.788-0.112,1.593-0.167,2.398c-0.247,3.385-0.534,6.85-0.86,10.339
						c-0.072,0.789-0.151,1.585-0.231,2.382c-0.343,3.441-0.725,6.906-1.163,10.355c-0.104,0.789-0.207,1.577-0.319,2.366
						c-0.231,1.768-0.486,3.529-0.749,5.281c0,0-18.321,6.373-58.149,0c0,0-0.175-1.219-0.446-3.393
						c-0.103-0.82-0.223-1.784-0.35-2.868c-0.311-2.613-0.677-5.942-1.059-9.774c-0.096-0.932-0.191-1.896-0.279-2.892
						c-0.287-3.035-0.566-6.317-0.821-9.766c-0.072-0.964-0.143-1.936-0.215-2.915c-0.207-3.17-0.398-6.444-0.542-9.774
						c-0.04-0.972-0.08-1.952-0.12-2.931c-0.111-3.25-0.183-6.54-0.199-9.79c0-0.988,0-1.967,0.008-2.947
						c0.024-3.346,0.12-6.635,0.295-9.822c0.056-0.996,0.119-1.975,0.199-2.947c0.255-3.473,0.629-6.779,1.139-9.837
						c0,0,7.559-1.179,20.878-1.482c6.795-0.159,15.079-0.088,24.63,0.494c6.11,0.366,12.737,0.932,19.811,1.784
						C147.643,153.707,147.699,156.479,147.675,161.227z"/>
					<path style="fill:#FFFFFF;" d="M147.675,161.227c0,0.757,0,1.561-0.008,2.406c-3.035-0.048-6.062-0.136-9.049-0.136
						c-7.91,0.016-15.82,0.12-23.73,0.351c-11.311,0.327-22.614,0.988-33.902,1.848c0.056-0.996,0.119-1.975,0.199-2.947
						c11.502-0.741,23.021-1.187,34.555-1.442c8.189-0.183,16.377-0.247,24.574-0.143
						C142.736,161.195,145.205,161.195,147.675,161.227z"/>
					<path style="fill:#FFFFFF;" d="M147.5,173.964c-0.016,0.788-0.04,1.593-0.064,2.414c-2.955-0.056-5.91-0.135-8.818-0.135
						c-7.91,0.016-15.82,0.119-23.73,0.35c-11.415,0.335-22.821,0.996-34.204,1.872c0-0.988,0-1.967,0.008-2.947
						c11.662-0.749,23.347-1.203,35.049-1.466c8.189-0.183,16.377-0.247,24.574-0.143C142.68,173.94,145.086,173.94,147.5,173.964z"
						/>
					<path style="fill:#FFFFFF;" d="M147.062,186.709c-0.04,0.789-0.072,1.593-0.12,2.406c-2.788-0.056-5.576-0.128-8.324-0.128
						c-7.91,0.016-15.82,0.12-23.73,0.35c-11.311,0.327-22.606,0.988-33.886,1.848c-0.04-0.972-0.08-1.952-0.12-2.931
						c11.598-0.749,23.22-1.195,34.857-1.458c8.189-0.183,16.377-0.247,24.574-0.143
						C142.537,186.685,144.799,186.685,147.062,186.709z"/>
					<path style="fill:#FFFFFF;" d="M146.353,199.446c-0.056,0.788-0.112,1.593-0.167,2.398c-2.541-0.056-5.066-0.112-7.567-0.112
						c-7.91,0.016-15.82,0.12-23.73,0.351c-11.056,0.327-22.105,0.956-33.129,1.792c-0.072-0.964-0.143-1.936-0.215-2.915
						c11.383-0.725,22.782-1.163,34.196-1.418c8.189-0.183,16.377-0.247,24.574-0.143
						C142.306,199.422,144.322,199.43,146.353,199.446z"/>
					<path style="fill:#FFFFFF;" d="M145.325,212.183c-0.072,0.789-0.151,1.585-0.231,2.382c-2.175-0.048-4.333-0.088-6.476-0.088
						c-7.91,0.016-15.82,0.119-23.73,0.35c-10.69,0.311-21.364,0.916-32.03,1.705c-0.096-0.932-0.191-1.896-0.279-2.892
						c11.04-0.685,22.097-1.107,33.161-1.354c8.189-0.183,16.377-0.247,24.574-0.143
						C141.971,212.167,143.644,212.167,145.325,212.183z"/>
					<path style="fill:#FFFFFF;" d="M143.931,224.92c-0.104,0.789-0.207,1.577-0.319,2.366c-1.673-0.04-3.337-0.064-4.994-0.064
						c-7.91,0.016-15.82,0.12-23.73,0.35c-10.212,0.295-20.424,0.86-30.62,1.601c-0.103-0.82-0.223-1.784-0.35-2.868
						c10.594-0.645,21.204-1.036,31.823-1.275c8.189-0.183,16.377-0.247,24.574-0.143C141.51,224.904,142.72,224.912,143.931,224.92
						z"/>
					<path style="fill:#E9C4A3;" d="M127.833,151.923l-13.645,20.105l-10.985-20.599
						C109.997,151.27,118.282,151.342,127.833,151.923z"/>
				</g>
			</g>
		</g>
		<g>
			<g>
				<path style="fill:#E9C4A3;" d="M115.781,147.335L115.781,147.335c-12.705,0-23.1-10.395-23.1-23.1V104.32
					c0-5.257,4.301-9.559,9.559-9.559h27.083c5.257,0,9.559,4.301,9.559,9.559v19.914
					C138.881,136.94,128.486,147.335,115.781,147.335z"/>
				<path style="fill:#E9C4A3;" d="M97.592,119.057c0,3.299-2.526,5.974-5.642,5.974c-3.116,0-5.642-2.675-5.642-5.974
					c0-3.299,2.526-5.974,5.642-5.974C95.066,113.083,97.592,115.757,97.592,119.057z"/>
			</g>
			<path style="fill:#E9C4A3;" d="M114.586,159.283L114.586,159.283c-4.179,0-7.567-3.388-7.567-7.567v-21.109h15.135v21.109
				C122.153,155.895,118.765,159.283,114.586,159.283z"/>
			<g>
				<circle style="fill:#1A2D60;" cx="111.001" cy="120.252" r="2.39"/>
				<circle style="fill:#1A2D60;" cx="131.712" cy="120.252" r="2.39"/>
				<path style="fill:#1A2D60;" d="M112.691,116.368l-6.226,1.357c-0.428,0.093-0.855-0.18-0.948-0.609l0,0
					c-0.093-0.428,0.181-0.855,0.609-0.948l6.226-1.358c0.428-0.093,0.855,0.181,0.948,0.609l0,0
					C113.393,115.849,113.119,116.275,112.691,116.368z"/>
				<path style="fill:#1A2D60;" d="M136.112,117.973l-6.087-1.887c-0.419-0.13-0.655-0.578-0.525-0.997l0,0
					c0.13-0.419,0.578-0.655,0.997-0.525l6.087,1.887c0.418,0.13,0.655,0.578,0.525,0.997l0,0
					C136.979,117.867,136.531,118.103,136.112,117.973z"/>
				<path style="fill:#FFFFFF;" d="M116.577,129.014c0-3.079,2.14-5.576,4.779-5.576s4.779,2.497,4.779,5.576
					s-2.14,3.186-4.779,3.186S116.577,132.093,116.577,129.014z"/>
			</g>
			<g>
				<path style="fill:#1A2D60;" d="M95.072,103.524c-0.553,5.458-0.384,11.149,0.499,16.555c0.635,3.886,1.683,7.941,3.952,11.222
					c4.245,6.14,13.269,6.38,20.03,6.237c7.012-0.148,13.611-1.994,17.555-8.126c0,0,0.942-1.465,1.764-3.182
					c0.2-0.418,0.831-0.264,0.805,0.199c-0.331,5.907-3.154,21.702-23.886,21.702c0,0-24.703,2.39-25.5-29.473v-15.135H95.072z"/>
				<path style="fill:#1A2D60;" d="M122.904,108.515c5.628,3.319,13.413,2.13,18.054-2.47c4.641-4.6,5.956-12.104,3.5-18.159
					c-1.314-3.239-4.066-6.307-7.561-6.385c-1.208-0.027-2.39,0.307-3.582,0.503c-6.788,1.121-13.49-2.189-20.352-2.691
					c-10.763-0.788-21.634,6.211-25.373,16.334c-1.143,3.095-1.696,7.835,0.804,10.492c2.235,2.375,6.866,3.569,9.885,4.364
					c4.095,1.078,8.374,1.456,12.595,1.116c2.074-0.167,4.134-0.507,6.15-1.024C117.821,110.391,122.46,108.253,122.904,108.515z"/>
			</g>
		</g>
		<g>
			<path style="fill:#344AA6;" d="M157.836,217.472c-6.645,15.197-21.098,25.807-36.836,30.09c-4.42,1.216-8.864,1.91-13.382,2.65
				c-2.416,0.401-5.034,0.754-6.989,2.338c-2.8,2.295-4.192,6.679-5.544,9.874c-1.56,3.708-2.884,7.479-4.043,11.321l-20.871-9
				c2.677-8.762,6.124-18.216,11.936-25.337c5.843-7.161,13.898-10.115,22.774-11.534c13.967-2.214,29.208-7.29,33.77-22.401
				c4.263-14.112-7.189-27.892-20.913-30.833c-6.292-1.349-12.626,1.416-17.249,5.626c-3.438,3.135-5.591,7.033-7.707,10.935
				l-20.882-9.005c2.036-5.025,5.173-9.745,8.548-13.799c6.37-7.655,15.028-13.221,24.709-15.566
				c17.852-4.317,35.493,5.298,46.869,18.704C162.803,184.237,164.431,202.424,157.836,217.472z"/>
			<path style="fill:#344AA6;" d="M86.094,292.906c0.329-2.449,0.042-4.822-0.862-7.121c-0.58-1.047-1.16-2.095-1.741-3.142
				c-1.508-2.034-3.425-3.556-5.75-4.568c-1.747-0.833-3.562-1.177-5.447-1.032c-1.823-0.169-3.59,0.123-5.3,0.877
				c-1.761,0.626-3.247,1.626-4.456,3c-1.47,1.189-2.555,2.685-3.253,4.49l-1.018,3.627c-0.329,2.449-0.042,4.822,0.862,7.121
				c0.58,1.047,1.16,2.095,1.74,3.142c1.508,2.034,3.425,3.556,5.75,4.568c1.746,0.833,3.563,1.177,5.448,1.032
				c1.823,0.169,3.59-0.123,5.3-0.877c1.761-0.626,3.247-1.626,4.456-3c1.47-1.189,2.555-2.685,3.253-4.49
				C85.415,295.324,85.755,294.115,86.094,292.906z"/>
		</g>
		<g>
			<path style="fill:#F3DCA3;" d="M80.7,245.249c2.315,1.597,5.233,2.694,8.157,2.406c2.924-0.288,5.728-2.232,6.106-4.799
				c0.14-0.948-0.068-1.967-0.749-2.713c-0.639-0.699-1.605-1.084-2.483-1.538c-2.012-1.04-3.703-2.555-4.849-4.344
				c0.843,0.38,1.74,0.77,2.685,0.712c0.945-0.058,1.907-0.755,1.79-1.582c-0.089-0.625-0.718-1.066-1.298-1.436
				c-1.718-1.096-3.436-2.191-5.154-3.287c-4.316-2.752-10.647,1.416-11.769,5.945C71.953,239.394,77.364,242.946,80.7,245.249z"/>
			<path style="fill:#F3DCA3;" d="M144.567,242.124c-2.755-0.566-5.566-1.915-7.381-4.225c-1.815-2.31-2.351-5.68-0.759-7.729
				c0.588-0.757,1.468-1.312,2.477-1.336c0.946-0.022,1.893,0.409,2.828,0.729c2.143,0.734,4.407,0.907,6.491,0.496
				c-0.857-0.346-1.76-0.724-2.372-1.446c-0.612-0.722-0.775-1.899-0.096-2.387c0.513-0.369,1.267-0.219,1.935-0.056
				c1.98,0.482,3.959,0.965,5.94,1.448c4.973,1.212,6.344,8.668,3.849,12.611C154.846,244.389,148.538,242.94,144.567,242.124z"/>
		</g>
	</g>
	<g>
		<g>
			<g>
				<g>
					<path style="fill:#344AA6;" d="M225.301,109.647c0.26,1.822,0.551,3.7,1.513,5.269c0.963,1.569,2.78,2.763,4.59,2.429
						c2.214-0.409,3.483-2.868,3.604-5.116c0.12-2.248-0.559-4.465-0.638-6.715c-0.114-3.231,1.071-6.489,3.232-8.893
						c0.868-0.965,1.969-2.207,1.389-3.367c-0.472-0.944-1.74-1.078-2.794-1.088c-3.087-0.028-6.174-0.056-9.26-0.085
						c-4.723-0.043-3.603,2.576-3.161,6.035C224.265,101.963,224.753,105.809,225.301,109.647z"/>
					<path style="fill:#344AA6;" d="M281.795,109.647c-0.26,1.822-0.55,3.7-1.513,5.269s-2.78,2.763-4.59,2.429
						c-2.214-0.409-3.483-2.868-3.604-5.116c-0.12-2.248,0.559-4.465,0.638-6.715c0.114-3.231-1.07-6.489-3.232-8.893
						c-0.867-0.965-1.97-2.207-1.389-3.367c0.472-0.944,1.74-1.078,2.794-1.088c3.087-0.028,6.173-0.056,9.26-0.085
						c4.723-0.043,3.603,2.576,3.161,6.035C282.83,101.963,282.343,105.809,281.795,109.647z"/>
					<g>
						<path style="fill:#E9C4A3;" d="M253.586,146.538L253.586,146.538c-12.705,0-23.1-10.395-23.1-23.1v-19.914
							c0-5.257,4.301-9.559,9.559-9.559h27.083c5.257,0,9.559,4.301,9.559,9.559v19.914
							C276.686,136.143,266.291,146.538,253.586,146.538z"/>
						<ellipse style="fill:#E9C4A3;" cx="276.753" cy="118.26" rx="5.642" ry="5.974"/>
						<ellipse style="fill:#E9C4A3;" cx="229.755" cy="118.26" rx="5.642" ry="5.974"/>
					</g>
					<path style="fill:#E9C4A3;" d="M253.984,158.487L253.984,158.487c-4.179,0-7.567-3.388-7.567-7.567V129.81h15.135v21.109
						C261.551,155.099,258.163,158.487,253.984,158.487z"/>
					<g>
						<path style="fill:#1A2D60;" d="M246.417,119.455c0,1.32-1.07,2.39-2.39,2.39c-1.32,0-2.39-1.07-2.39-2.39s1.07-2.39,2.39-2.39
							C245.347,117.065,246.417,118.135,246.417,119.455z"/>
						<path style="fill:#1A2D60;" d="M245.62,116.269h-6.372c-0.438,0-0.797-0.358-0.797-0.797l0,0c0-0.438,0.358-0.797,0.797-0.797
							h6.372c0.438,0,0.796,0.359,0.796,0.797l0,0C246.417,115.91,246.058,116.269,245.62,116.269z"/>
						<circle style="fill:#1A2D60;" cx="263.941" cy="119.455" r="2.39"/>
						<path style="fill:#1A2D60;" d="M262.348,116.269h6.372c0.438,0,0.797-0.358,0.797-0.797l0,0c0-0.438-0.358-0.797-0.797-0.797
							h-6.372c-0.438,0-0.797,0.359-0.797,0.797l0,0C261.551,115.91,261.91,116.269,262.348,116.269z"/>
						<path style="fill:#FFFFFF;" d="M258.365,127.421c0,2.64-1.962,4.779-4.381,4.779c-2.42,0-4.381-2.14-4.381-4.779
							c0-2.64,1.962-4.779,4.381-4.779C256.404,122.641,258.365,124.781,258.365,127.421z"/>
					</g>
					<path style="fill:#1A2D60;" d="M236.635,77.806c-7.263,4.178-12.815,11.238-15.162,19.281
						c-0.564,1.934-0.949,3.999-0.459,5.953c1.03,4.102,5.713,6.405,9.936,6.175c4.223-0.23,8.075-2.361,11.757-4.441
						c6.523,4.497,15.827,4.504,22.357,0.017c3.191,4.873,10.51,6.079,15.515,3.1c5.005-2.979,7.473-9.33,6.6-15.089
						C283.945,71.47,251.898,69.026,236.635,77.806z"/>
				</g>
				<g>
					<g>
						<path style="fill:#5691B3;" d="M279.872,388.693c0,0,13.542,6.372,14.338,7.966c0,0,0.55,2.751,0.279,5.052
							c-0.09,0.766-0.736,1.38-1.507,1.375c-8.33-0.055-16.296-0.851-24.26-2.311c-0.916-0.168-1.664-0.818-1.724-1.747
							c-0.163-2.536-0.329-7.592,0.527-11.729L279.872,388.693z"/>
						<path style="fill:#5691B3;" d="M238.451,388.693c0,0,14.338,6.372,15.135,7.966c0,0,0.55,2.751,0.279,5.052
							c-0.09,0.766-0.737,1.345-1.507,1.375c-3.705,0.144-10.626-0.055-25.056-2.311c-0.92-0.144-1.664-0.818-1.724-1.747
							c-0.163-2.536-0.329-7.592,0.527-11.729L238.451,388.693z"/>
						<path style="fill:#1A2D60;" d="M224.511,230.177l4.381,89.215l-3.983,70.097c0,0,7.169,1.593,14.338,0l11.948-79.656
							l0.797-54.963h7.169l8.762,70.894l-0.797,63.725c0,0,5.576,2.39,14.338,0l7.169-73.284l-5.576-90.808L224.511,230.177z"/>
					</g>
					<g>
						<path style="fill:#82C2D6;" d="M297.018,159.301l14.584,43.883c1.576,4.742-1.074,9.849-5.859,11.29l0,0
							c-4.784,1.441-9.815-1.352-11.12-6.175l-12.084-44.636L297.018,159.301z"/>
						<path style="fill:#82C2D6;" d="M287.041,151.318c0,0,0,48.59-3.186,90.012c0,0-15.135,4.779-58.946,0
							c0,0-3.983-16.728-2.39-89.215c0,0,4.262-0.327,13-0.613c8.348-0.271,20.79-0.502,37.526-0.366
							C277.419,151.166,282.079,151.23,287.041,151.318z"/>
						<path style="fill:#FFFFFF;" d="M273.046,151.134l-14.004,20.766l-5.457,8.093l-4.915-7.758l-13.151-20.735
							c3.306-0.104,7.249-0.207,11.853-0.287c4.071-0.064,8.667-0.104,13.781-0.112
							C264.841,151.087,268.808,151.102,273.046,151.134z"/>
						<path style="fill:#5691B3;" d="M257.569,159.315l1.474,12.586l-5.457,8.093l-4.915-7.758l1.729-12.92l-3.027-8.101
							c4.071-0.064,8.667-0.104,13.781-0.112L257.569,159.315z"/>
						<path style="fill:#82C2D6;" d="M231.463,155.858c2.841,3.934,2.191,9.386-1.494,12.542c-4.105,3.517-8.849,7.685-10.12,9.209
							c-1.169,1.413-2.286,2.845-3.285,4.317c-0.986,1.473-1.88,2.966-2.665,4.467c-0.773,1.501-1.396,3.014-1.881,4.512
							l-0.337,1.12l-0.258,1.109c-0.107,0.372-0.13,0.732-0.201,1.098l-0.095,0.547c-0.007,0.044-0.01-0.055-0.015-0.073
							c-0.066-0.307-0.185-0.396-0.277-0.443c0.473,0.45,1.116,1.024,1.744,1.52c0.637,0.515,1.331,1.009,2.031,1.502
							c2.879,1.919,6.156,3.6,9.649,4.959c3.486,1.378,7.167,2.479,10.936,3.371c3.791,0.827,7.662,1.501,11.582,1.941
							l-2.312,16.567c-4.363-0.78-8.739-1.577-13.093-2.692c-4.36-1.104-8.712-2.422-13.026-4.089
							c-2.153-0.836-4.302-1.768-6.43-2.794c-2.125-1.06-4.228-2.217-6.305-3.536c-1.037-0.675-2.069-1.366-3.088-2.131
							c-1.036-0.772-1.993-1.551-3.065-2.512c-8.393-7.531-5.086-20.57-0.138-29.06c3.971-6.814,9.544-12.734,14.568-18.76
							c0.226-0.271,1.479-1.665,3.049-3.428C220.901,150.667,227.972,151.023,231.463,155.858L231.463,155.858z"/>
					</g>
				</g>
			</g>
			<g>
				<path style="fill:#DDBB63;" d="M337.571,130.902c-5.49,15.574-19.066,27.164-34.381,32.566c-4.3,1.53-8.663,2.543-13.094,3.608
					c-2.37,0.574-4.944,1.116-6.77,2.831c-2.613,2.483-3.675,6.938-4.784,10.209c-1.279,3.796-2.318,7.637-3.188,11.536
					l-21.38-7.414c2.019-8.896,4.752-18.534,10.004-26.029c5.279-7.537,13.062-11.057,21.772-13.114
					c13.707-3.218,28.47-9.37,31.897-24.707c3.203-14.324-9.173-27.17-23.015-29.089c-6.346-0.88-12.434,2.327-16.717,6.845
					c-3.185,3.363-5.038,7.392-6.854,11.42l-21.392-7.418c1.655-5.138,4.426-10.054,7.481-14.325
					c5.767-8.066,13.957-14.225,23.399-17.259c17.411-5.589,35.629,2.671,47.903,15.152
					C340.078,97.538,343.021,115.478,337.571,130.902z"/>
				<path style="fill:#DDBB63;" d="M271.838,211.038c0.148-2.456-0.31-4.792-1.376-7.008c-0.652-0.998-1.305-1.995-1.957-2.993
					c-1.646-1.91-3.66-3.281-6.042-4.116c-1.795-0.699-3.623-0.908-5.484-0.627c-1.823-0.035-3.555,0.384-5.199,1.257
					c-1.703,0.75-3.105,1.851-4.206,3.304c-1.373,1.288-2.341,2.853-2.903,4.695l-0.746,3.676c-0.148,2.456,0.31,4.792,1.376,7.008
					c0.652,0.998,1.305,1.995,1.957,2.993c1.646,1.91,3.66,3.281,6.042,4.116c1.795,0.699,3.623,0.908,5.484,0.627
					c1.822,0.035,3.555-0.384,5.199-1.257c1.703-0.75,3.105-1.851,4.206-3.304c1.373-1.288,2.341-2.853,2.903-4.695
					C271.341,213.488,271.59,212.263,271.838,211.038z"/>
			</g>
		</g>
		<g>
			<path style="fill:#E9C4A3;" d="M242.272,222.021c2.792,0.343,5.886-0.038,8.343-1.648c2.457-1.61,4.041-4.632,3.187-7.083
				c-0.316-0.905-0.972-1.712-1.921-2.057c-0.889-0.323-1.924-0.217-2.913-0.212c-2.265,0.011-4.466-0.548-6.31-1.602
				c0.923-0.054,1.899-0.125,2.709-0.614c0.811-0.489,1.34-1.553,0.853-2.231c-0.368-0.513-1.13-0.612-1.816-0.671
				c-2.03-0.175-4.06-0.35-6.091-0.524c-5.1-0.439-8.779,6.189-7.673,10.723C231.807,220.887,238.248,221.527,242.272,222.021z"/>
			<path style="fill:#E9C4A3;" d="M281.656,172.401c-1.309-2.489-2.048-5.519-1.412-8.387c0.636-2.868,2.902-5.419,5.496-5.487
				c0.958-0.025,1.945,0.303,2.603,1.069c0.617,0.717,0.884,1.723,1.229,2.649c0.791,2.122,2.093,3.983,3.732,5.334
				c-0.276-0.883-0.556-1.82-0.385-2.751c0.17-0.931,0.978-1.803,1.785-1.588c0.61,0.163,0.972,0.841,1.27,1.461
				c0.882,1.837,1.764,3.673,2.646,5.511c2.215,4.614-2.681,10.401-7.312,10.972C286.421,181.787,283.542,175.99,281.656,172.401z"
				/>
		</g>
	</g>
	<g>
		<g>
			<g>
				<path style="fill:#E9C4A3;" d="M409.298,257.859c-0.762,10.723-1.469,21.523-2.141,32.292
					c-0.674,10.776-1.293,21.553-1.863,32.328c-0.575,10.775-1.074,21.545-1.469,32.297c-0.385,10.741-0.71,21.515-0.609,32.077
					l-12.887,0.755c-0.799-11.058-1.147-21.937-1.442-32.839c-0.282-10.893-0.46-21.767-0.562-32.632
					c-0.107-10.867-0.164-21.728-0.167-32.587c-0.003-10.867,0.025-21.7,0.115-32.606L409.298,257.859z"/>
				<path style="fill:#E9C4A3;" d="M434.219,257.934c-0.695,10.727-1.334,21.532-1.938,32.304
					c-0.607,10.78-1.158,21.561-1.66,32.339c-0.507,10.778-0.939,21.551-1.267,32.306c-0.318,10.743-0.574,21.519-0.408,32.08
					l-12.882,0.836c-0.868-11.053-1.285-21.93-1.648-32.829c-0.351-10.891-0.597-21.763-0.767-32.628
					c-0.175-10.866-0.301-21.727-0.371-32.586c-0.072-10.867-0.111-21.7-0.09-32.606L434.219,257.934z"/>
				<path style="fill:#DE5B5E;" d="M389.017,386.295c0,0-12.329,6.596-13.257,8.057c0,0-1.567,3.96-1.292,6.095
					c0.091,0.711,0.816,1.291,1.691,1.3c9.46,0.098,17.209-1.876,25.344-4.066c1.015-0.273,1.901-0.728,1.982-1.587
					c0.222-2.345,0.484-7.025-0.428-10.87L389.017,386.295z"/>
				<path style="fill:#DE5B5E;" d="M415.136,386.315c0,0-12.288,6.673-13.206,8.14c0,0-1.542,3.97-1.254,6.103
					c0.096,0.71,0.824,1.286,1.7,1.29c9.461,0.038,17.197-1.984,25.318-4.225c1.013-0.28,1.896-0.74,1.972-1.599
					c0.207-2.347,0.44-7.027-0.496-10.867L415.136,386.315z"/>
			</g>
			<g>
				<path style="fill:#DDBB63;" d="M448.743,304.289c-4.262,0.789-8.531,1.41-12.745,1.872c-0.956,0.112-1.912,0.207-2.86,0.295
					c-7.09,0.685-13.988,0.964-20.44,0.988c-1.028,0-2.039,0-3.043-0.008c-8.706-0.08-16.481-0.613-22.662-1.219
					c-0.773-0.072-1.521-0.151-2.238-0.223c-7.774-0.828-12.482-1.705-12.482-1.705c-0.311-4.74-0.486-9.304-0.534-13.685
					c-0.008-1.067-0.016-2.119-0.016-3.154c0.016-5.6,0.223-10.889,0.597-15.868c0.072-1.051,0.159-2.087,0.247-3.107
					c0.558-6.269,1.346-12.02,2.294-17.245c0.175-1.028,0.366-2.031,0.565-3.019c1.163-5.926,2.509-11.128,3.855-15.589
					c0.303-0.988,0.605-1.944,0.908-2.86c3.696-11.343,7.217-17.11,7.217-17.11h45.404c2.517,4.708,4.652,9.686,6.46,14.792
					c0.335,0.956,0.669,1.92,0.988,2.884c1.633,4.986,2.971,10.068,4.07,15.111c0.207,0.988,0.414,1.975,0.613,2.963
					c1.155,5.799,1.999,11.51,2.613,16.951c0.12,1.02,0.223,2.031,0.327,3.027c0.558,5.688,0.876,11.008,1.036,15.724
					c0.04,1.067,0.072,2.095,0.088,3.091C449.237,297.55,448.743,304.289,448.743,304.289z"/>
				<path style="fill:#F3DCA3;" d="M435.345,290.238c4.604-0.844,9.168-1.848,13.661-3.043c-0.016-0.996-0.048-2.023-0.088-3.091
					c-4.517,1.219-9.105,2.246-13.741,3.091c-0.319-5.273-0.741-10.547-1.259-15.812c4.708-0.813,9.36-1.816,13.964-3.003
					c-0.103-0.996-0.207-2.007-0.327-3.027c-4.596,1.187-9.248,2.183-13.956,3.003c-0.207-1.991-0.43-3.975-0.669-5.958
					c-0.462-3.776-0.964-7.543-1.521-11.311c4.556-0.725,9.073-1.625,13.534-2.684c-0.199-0.988-0.406-1.976-0.613-2.963
					c-4.405,1.051-8.866,1.936-13.366,2.645c-0.805-5.233-1.705-10.451-2.724-15.644c4.047-0.566,8.053-1.274,12.02-2.111
					c-0.319-0.964-0.653-1.928-0.988-2.884c-3.847,0.804-7.727,1.474-11.638,2.015c-1.163-5.64-2.469-11.247-3.951-16.807h-2.453
					c1.322,5.703,2.581,11.415,3.752,17.15c-4.588,0.566-9.224,0.956-13.876,1.171c0.024-1.37,0.04-2.74,0.064-4.11
					c0.096-4.74,0.199-9.471,0.319-14.211h-2.238c-0.199,4.477-0.351,8.945-0.454,13.422c-0.04,1.665-0.072,3.33-0.104,4.994
					c-5.632,0.183-11.271,0.111-16.887-0.223c0.47-2.43,0.98-4.859,1.545-7.265c0.868-3.72,1.928-7.344,3.091-10.929h-2.43
					c-0.924,3.25-1.737,6.508-2.493,9.694c-0.669,2.772-1.267,5.56-1.816,8.364c-2.278-0.167-4.548-0.374-6.819-0.621
					c-0.9-0.104-1.8-0.207-2.692-0.327c-0.303,0.916-0.605,1.872-0.908,2.86c1.29,0.143,2.541,0.271,3.728,0.406
					c2.047,0.231,4.094,0.422,6.149,0.581c-0.956,5.297-1.721,10.634-2.326,15.979c-1.314-0.111-2.637-0.239-3.951-0.382
					c-2.493-0.279-4.979-0.613-7.456-0.996c-0.199,0.988-0.39,1.991-0.565,3.019c2.852,0.358,5.648,0.637,8.149,0.916
					c1.171,0.128,2.342,0.247,3.513,0.358c-0.048,0.494-0.103,0.996-0.151,1.49c-0.526,5.377-0.892,10.762-1.147,16.162
					c-0.781-0.08-1.561-0.159-2.342-0.239c-3.457-0.39-6.89-0.884-10.315-1.442c-0.088,1.02-0.175,2.055-0.247,3.107
					c3.72,0.558,7.448,0.908,10.69,1.275c0.701,0.08,1.394,0.143,2.095,0.215c-0.183,4.572-0.287,9.152-0.342,13.733
					c-0.008,0.805-0.008,1.609-0.016,2.414c-0.621-0.056-1.243-0.12-1.864-0.183c-3.744-0.422-7.456-0.964-11.16-1.585
					c0,1.036,0.008,2.087,0.016,3.154c3.911,0.621,7.862,0.988,11.271,1.37c0.573,0.064,1.147,0.12,1.721,0.175
					c-0.008,3.712,0,7.416,0.032,11.12c0.008,0.9,0.008,1.808-0.008,2.724c0.717,0.072,1.466,0.151,2.238,0.223
					c-0.032-0.988-0.056-1.967-0.064-2.947c-0.032-3.632-0.04-7.273-0.032-10.905c7.352,0.669,14.752,0.908,22.145,0.669
					c0.151,4.803,0.35,9.607,0.613,14.402c1.004,0.008,2.015,0.008,3.043,0.008c-0.231-4.843-0.462-9.686-0.677-14.529
					c6.994-0.335,13.932-1.083,20.766-2.23c0.104,1.912,0.199,3.823,0.271,5.735c0.12,3.338,0.128,6.683,0.08,10.037
					c0.948-0.088,1.904-0.183,2.86-0.295c-0.104-3.019-0.231-6.03-0.342-8.985C435.576,294.866,435.473,292.556,435.345,290.238z
					 M391.264,233.762c5.775,0.39,11.574,0.51,17.365,0.342c-0.088,5.361-0.135,10.73-0.151,16.09
					c-6.5,0.207-13.024,0.072-19.508-0.422C389.559,244.412,390.316,239.067,391.264,233.762z M388.404,255.412
					c0.08-0.908,0.167-1.816,0.263-2.724c6.58,0.534,13.199,0.725,19.811,0.534c0.008,2.238,0.008,4.477,0.024,6.715
					c0.032,3.648,0.064,7.304,0.103,10.969c-7.073,0.223-14.163,0.048-21.212-0.558C387.631,265.361,387.95,260.383,388.404,255.412
					z M408.772,290.015c-7.297,0.239-14.609,0.048-21.858-0.59c0-0.637,0-1.267,0.008-1.904c0.048-4.747,0.159-9.495,0.35-14.242
					c7.089,0.629,14.235,0.86,21.372,0.653c0.064,5.353,0.167,10.714,0.319,16.075C408.899,290.007,408.836,290.015,408.772,290.015
					z M411.058,234.017c4.875-0.207,9.726-0.621,14.529-1.219c1.028,5.202,1.975,10.427,2.82,15.668
					c-5.751,0.828-11.574,1.362-17.437,1.633C410.97,244.738,410.994,239.378,411.058,234.017z M411.018,259.937
					c-0.016-2.262-0.032-4.533-0.04-6.795c6.022-0.255,11.996-0.821,17.907-1.673c0.589,3.879,1.131,7.767,1.593,11.678
					c0.223,1.872,0.414,3.752,0.613,5.624c-6.548,1.036-13.183,1.713-19.866,2.023C411.13,267.177,411.058,263.561,411.018,259.937z
					 M411.895,289.888c-0.231-5.353-0.43-10.698-0.589-16.051c6.771-0.303,13.486-0.988,20.105-2.039
					c0.51,5.273,0.924,10.554,1.227,15.844C425.81,288.788,418.88,289.537,411.895,289.888z"/>
			</g>
			<path style="fill:#5691B3;" d="M454.698,180.052c-5.066-14.866-14.178-27.972-14.564-28.523l-4.055,2.836
				c-0.045-0.958-0.081-1.454-0.081-1.454c-28.676-4.779-52.573,0-52.573,0c-0.035,0.631-0.065,1.264-0.094,1.897l-1.115-0.36
				l-11.836,36.692l-28.204-29.404l-11.497,11.027l32.262,33.635c2.387,2.488,5.588,3.833,8.924,3.833
				c0.94,0,1.89-0.107,2.835-0.324c4.306-0.991,7.686-4.093,9.042-8.298l1.466-4.545c1.088,9.4,2.199,15.589,2.199,15.589
				c9.791,2.856,21.456,2.785,30.514,2.037l0.031,0.13c0.256-0.062,0.499-0.132,0.752-0.196c8.222-0.725,14.107-1.971,14.107-1.971
				c0.134-1.068,0.26-2.118,0.384-3.16c7.727-3.641,13.313-7.912,17.053-11.423C455.123,193.495,456.869,186.422,454.698,180.052z
				 M439.346,186.454c-1.036,0.973-2.447,2.175-4.222,3.467c0.39-5.053,0.652-9.613,0.826-13.678
				c1.335,2.824,2.616,5.858,3.669,8.948C439.779,185.662,439.675,186.145,439.346,186.454z"/>
		</g>
		<g>
			<g>
				<path style="fill:#E9C4A3;" d="M409.26,148.131L409.26,148.131c-12.705,0-23.1-10.395-23.1-23.1v-19.914
					c0-5.257,4.301-9.559,9.559-9.559h27.083c5.257,0,9.559,4.301,9.559,9.559v19.914
					C432.36,137.736,421.965,148.131,409.26,148.131z"/>
				<ellipse style="fill:#F3DCA3;" cx="432.427" cy="119.853" rx="5.642" ry="5.974"/>
			</g>
			<path style="fill:#E9C4A3;" d="M409.658,160.08L409.658,160.08c-4.179,0-7.567-3.388-7.567-7.567v-21.109h15.135v21.109
				C417.226,156.692,413.838,160.08,409.658,160.08z"/>
			<g>
				<path style="fill:#1A2D60;" d="M393.329,121.048c0,1.32-1.07,2.39-2.39,2.39c-1.32,0-2.39-1.07-2.39-2.39
					c0-1.32,1.07-2.39,2.39-2.39C392.259,118.659,393.329,119.729,393.329,121.048z"/>
				<path style="fill:#1A2D60;" d="M395.718,117.862h-6.372c-0.438,0-0.797-0.358-0.797-0.797l0,0c0-0.438,0.359-0.797,0.797-0.797
					h6.372c0.438,0,0.797,0.358,0.797,0.797l0,0C396.515,117.504,396.157,117.862,395.718,117.862z"/>
				<path style="fill:#1A2D60;" d="M409.26,121.048c0,1.32,1.07,2.39,2.39,2.39s2.39-1.07,2.39-2.39c0-1.32-1.07-2.39-2.39-2.39
					S409.26,119.729,409.26,121.048z"/>
				<path style="fill:#1A2D60;" d="M410.057,117.862h6.372c0.438,0,0.797-0.358,0.797-0.797l0,0c0-0.438-0.358-0.797-0.797-0.797
					h-6.372c-0.438,0-0.797,0.358-0.797,0.797l0,0C409.26,117.504,409.618,117.862,410.057,117.862z"/>
				<path style="fill:#FFFFFF;" d="M406.074,129.014c0,2.639-1.962,4.779-4.381,4.779s-4.381-2.14-4.381-4.779
					c0-2.64,1.962-4.779,4.381-4.779S406.074,126.374,406.074,129.014z"/>
			</g>
			<path style="fill:#1A2D60;" d="M383.258,100.619c-1.104,3.118-1.492,7.054,0.923,9.315c1.834,1.717,4.628,1.816,7.131,1.61
				c8.209-0.678,16.22-3.626,22.91-8.431c1.748,5.154,5.315,9.671,9.924,12.565c3.198,2.008,7.491,3.182,10.654,1.12
				c3.309-2.156,5.441-9.202,4.823-13.102c-1.393-8.793-7.962-14.391-15.872-18.475C408.617,77.407,388.93,84.6,383.258,100.619z"/>
			<path style="fill:#1A2D60;" d="M443.377,105.62c4.449,9.497,5.25,20.65,2.202,30.685c-1.29,4.249-3.26,8.407-3.292,12.847
				c-0.046,6.416,3.978,12.686,2.476,18.923c-0.822,3.413-3.367,6.363-6.622,7.677c-3.255,1.314-7.135,0.956-10.095-0.93
				c-3.096,3.956-8.665,5.786-13.505,4.438c-4.84-1.349-8.659-5.794-9.264-10.782c-3.843-2.116-5.446-7.11-4.587-11.412
				c0.859-4.302,3.724-7.954,6.999-10.874c3.275-2.919,7.018-5.269,10.37-8.1c6.513-5.501,11.572-13.112,12.576-21.577
				c0.696-5.869-0.596-11.719-2.726-17.17c-0.888-2.273-7.565-13.017-5.288-13.966c2.85-1.187,10.271,6.194,12.095,8.003
				C438.284,96.918,441.246,101.07,443.377,105.62z"/>
		</g>
		<g>
			<path style="fill:#DE5B5E;" d="M417.314,172.279c7.622,14.731,6.764,32.64,0.182,47.564c-1.839,4.199-4.098,8.089-6.367,12.065
				c-1.21,2.129-2.584,4.386-2.585,6.902c0.02,3.62,2.549,7.462,4.18,10.524c1.899,3.547,3.994,6.95,6.25,10.269l-20.134,10.547
				c-5.122-7.597-10.295-16.227-12.168-25.227c-1.884-9.048,0.893-17.166,5.379-24.955c7.074-12.245,12.727-27.281,3.86-40.34
				c-8.28-12.197-26.195-11.977-37.121-3.167c-5.01,4.038-6.85,10.7-6.49,16.943c0.271,4.645,1.944,8.772,3.643,12.872
				l-20.144,10.553c-2.622-4.745-4.313-10.155-5.338-15.329c-1.936-9.769-0.809-20,3.466-28.997
				c7.887-16.587,26.464-24.238,44.042-24.635C394.622,147.494,409.776,157.681,417.314,172.279z"/>
			<path style="fill:#DE5B5E;" d="M430.744,275.512c-1.695-1.798-3.72-3.069-6.075-3.814c-1.179-0.209-2.358-0.418-3.537-0.626
				c-2.53-0.109-4.919,0.421-7.169,1.591c-1.747,0.833-3.157,2.027-4.232,3.582c-1.28,1.31-2.165,2.866-2.656,4.67
				c-0.623,1.762-0.781,3.546-0.475,5.351c-0.002,1.891,0.478,3.675,1.439,5.354l2.177,3.074c1.695,1.798,3.72,3.069,6.075,3.814
				c1.179,0.209,2.358,0.418,3.537,0.626c2.53,0.109,4.919-0.421,7.169-1.591c1.747-0.833,3.157-2.027,4.232-3.582
				c1.279-1.31,2.165-2.866,2.656-4.67c0.623-1.762,0.781-3.546,0.475-5.351c0.002-1.891-0.477-3.675-1.439-5.354
				C432.195,277.561,431.47,276.536,430.744,275.512z"/>
		</g>
		<g>
			<path style="fill:#E9C4A3;" d="M428.415,201.549c-0.697-1.937-2.013-3.664-3.758-4.771c-0.806-0.511-1.748-0.907-2.694-0.78
				c-0.946,0.127-1.847,0.93-1.803,1.883c0.069,1.533,2.292,2.367,2.203,3.898c-0.033,0.565-0.411,1.075-0.901,1.359
				c-0.49,0.284-1.077,0.364-1.642,0.328c-1.348-0.085-2.569-0.781-3.781-1.377c-1.213-0.596-2.567-1.118-3.887-0.829
				c-1.525,0.334-2.632,1.686-3.266,3.112c-0.991,2.227-1.083,4.921,0.096,7.054c0.757,1.368,1.988,2.44,3.379,3.155
				c1.391,0.715,2.937,1.09,4.49,1.265c2.103,0.238,4.28,0.113,6.256-0.644c1.955-0.749,3.632-2.233,4.68-4.038
				C429.362,208.456,429.465,204.466,428.415,201.549z"/>
			<path style="fill:#E9C4A3;" d="M336.116,160.422c2.053-0.163,4.168,0.324,5.896,1.458c0.798,0.524,1.547,1.219,1.821,2.133
				c0.274,0.914-0.086,2.066-0.972,2.419c-1.425,0.568-3.101-1.113-4.46-0.4c-0.502,0.263-0.81,0.818-0.866,1.381
				c-0.057,0.564,0.112,1.131,0.378,1.631c0.634,1.193,1.77,2.019,2.813,2.878c1.043,0.859,2.077,1.878,2.357,3.2
				c0.324,1.527-0.452,3.092-1.49,4.258c-1.621,1.821-4.037,3.015-6.467,2.82c-1.559-0.126-3.042-0.806-4.267-1.779
				c-1.224-0.972-2.203-2.226-3.003-3.57c-1.084-1.818-1.866-3.853-1.992-5.966c-0.124-2.09,0.538-4.229,1.75-5.929
				C329.432,162.406,333.025,160.668,336.116,160.422z"/>
		</g>
	</g>
</g>
</svg>
